<svg width="200" height="200" viewBox="0 0 200 200" fill="none" xmlns="http://www.w3.org/2000/svg">
<path d="M138.167 26.416C140.196 22.5357 138.62 17.7148 134.528 16.1554C117.576 9.69498 98.9295 8.25928 81.0187 12.1354C60.4791 16.5804 42.1779 27.7357 29.2333 43.7007C16.2887 59.6657 9.50161 79.4526 10.0285 99.6898C10.5554 119.927 18.3637 139.363 32.1229 154.685C45.8821 170.007 64.7409 180.268 85.486 183.719C106.231 187.17 127.579 183.598 145.892 173.612C164.205 163.625 178.351 147.842 185.918 128.951C192.515 112.484 193.757 94.5443 189.587 77.4821C188.559 73.2759 184.099 71.0608 179.972 72.3736V72.3736C175.707 73.7306 173.443 78.3287 174.396 82.7015C177.351 96.2503 176.198 110.394 170.981 123.419C164.744 138.986 153.087 151.993 137.995 160.223C122.904 168.453 105.311 171.397 88.215 168.553C71.1191 165.708 55.5777 157.253 44.2388 144.626C32.8999 131.999 26.4652 115.982 26.031 99.3046C25.5968 82.6272 31.19 66.321 41.8575 53.1644C52.5251 40.0077 67.607 30.8147 84.5335 27.1516C98.991 24.0228 114.03 25.0938 127.769 30.1422C131.7 31.5867 136.226 30.1274 138.167 26.416V26.416Z" fill="#A877FF"/>
<path d="M82.7301 80.3068C83.6278 80.3068 84.4915 80.4574 85.321 80.7585C86.1563 81.0597 86.9006 81.5398 87.554 82.1989C88.2131 82.858 88.733 83.733 89.1136 84.8239C89.5 85.9091 89.696 87.2415 89.7017 88.821C89.7017 90.304 89.5341 91.6278 89.1989 92.7926C88.8693 93.9517 88.3949 94.9375 87.7756 95.75C87.1563 96.5625 86.4091 97.1818 85.5341 97.608C84.6591 98.0284 83.6818 98.2386 82.6023 98.2386C81.4375 98.2386 80.4091 98.0142 79.517 97.5653C78.625 97.1108 77.9063 96.4943 77.3608 95.7159C76.821 94.9318 76.4943 94.0511 76.3807 93.0739H80.0199C80.1619 93.7102 80.4602 94.2045 80.9148 94.5568C81.3693 94.9034 81.9318 95.0767 82.6023 95.0767C83.7386 95.0767 84.6023 94.5824 85.1932 93.5938C85.7841 92.5994 86.0824 91.2386 86.0881 89.5114H85.9688C85.7074 90.0227 85.3551 90.4631 84.9119 90.8324C84.4688 91.196 83.9602 91.4773 83.3864 91.6761C82.8182 91.875 82.2131 91.9744 81.571 91.9744C80.5426 91.9744 79.625 91.733 78.8182 91.25C78.0114 90.767 77.375 90.1023 76.9091 89.2557C76.4432 88.4091 76.2102 87.4432 76.2102 86.358C76.2045 85.1875 76.4744 84.1449 77.0199 83.2301C77.5653 82.3153 78.3267 81.5994 79.304 81.0824C80.2869 80.5597 81.429 80.3011 82.7301 80.3068ZM82.7557 83.2045C82.1818 83.2045 81.6705 83.3409 81.2216 83.6136C80.7784 83.8864 80.4261 84.2528 80.1648 84.7131C79.9091 85.1733 79.7841 85.6875 79.7898 86.2557C79.7898 86.8295 79.9148 87.3466 80.1648 87.8068C80.4205 88.2614 80.767 88.625 81.2045 88.8977C81.6477 89.1648 82.1534 89.2983 82.7216 89.2983C83.1477 89.2983 83.5426 89.2187 83.9062 89.0597C84.2699 88.9006 84.5852 88.6818 84.8523 88.4034C85.125 88.1193 85.3381 87.7926 85.4915 87.4233C85.6449 87.054 85.7216 86.6619 85.7216 86.2472C85.7159 85.696 85.5852 85.1903 85.3295 84.7301C85.0739 84.2699 84.7216 83.9006 84.2727 83.6222C83.8239 83.3437 83.3182 83.2045 82.7557 83.2045ZM91.9943 94.9318V92.0256L99.2812 80.5455H101.787V84.5682H100.304L95.7102 91.8381V91.9744H106.065V94.9318H91.9943ZM100.372 98V94.0455L100.44 92.7585V80.5455H103.901V98H100.372ZM118.078 94.7273V93.8068C118.078 93.108 118.226 92.4659 118.521 91.8807C118.822 91.2898 119.257 90.8182 119.825 90.4659C120.399 90.108 121.098 89.929 121.922 89.929C122.757 89.929 123.459 90.1051 124.027 90.4574C124.601 90.8097 125.033 91.2812 125.322 91.8722C125.618 92.4574 125.766 93.1023 125.766 93.8068V94.7273C125.766 95.4261 125.618 96.071 125.322 96.6619C125.027 97.2472 124.592 97.7159 124.018 98.0682C123.445 98.4261 122.746 98.6051 121.922 98.6051C121.087 98.6051 120.385 98.4261 119.817 98.0682C119.249 97.7159 118.817 97.2472 118.521 96.6619C118.226 96.071 118.078 95.4261 118.078 94.7273ZM120.558 93.8068V94.7273C120.558 95.1307 120.655 95.5114 120.848 95.8693C121.047 96.2273 121.405 96.4062 121.922 96.4062C122.439 96.4062 122.791 96.2301 122.979 95.8778C123.172 95.5256 123.268 95.142 123.268 94.7273V93.8068C123.268 93.392 123.178 93.0057 122.996 92.6477C122.814 92.2898 122.456 92.1108 121.922 92.1108C121.411 92.1108 121.055 92.2898 120.857 92.6477C120.658 93.0057 120.558 93.392 120.558 93.8068ZM109.121 84.7386V83.8182C109.121 83.1136 109.271 82.4687 109.572 81.8835C109.874 81.2926 110.308 80.821 110.876 80.4688C111.45 80.1165 112.143 79.9403 112.956 79.9403C113.797 79.9403 114.501 80.1165 115.07 80.4688C115.638 80.821 116.07 81.2926 116.365 81.8835C116.661 82.4687 116.808 83.1136 116.808 83.8182V84.7386C116.808 85.4432 116.658 86.0881 116.357 86.6733C116.061 87.2585 115.626 87.7273 115.053 88.0795C114.484 88.4261 113.786 88.5994 112.956 88.5994C112.126 88.5994 111.425 88.4233 110.851 88.071C110.283 87.7131 109.851 87.2443 109.555 86.6648C109.266 86.0795 109.121 85.4375 109.121 84.7386ZM111.618 83.8182V84.7386C111.618 85.1534 111.714 85.5369 111.908 85.8892C112.107 86.2415 112.456 86.4176 112.956 86.4176C113.479 86.4176 113.834 86.2415 114.021 85.8892C114.214 85.5369 114.311 85.1534 114.311 84.7386V83.8182C114.311 83.4034 114.22 83.017 114.038 82.6591C113.857 82.3011 113.496 82.1222 112.956 82.1222C112.45 82.1222 112.101 82.304 111.908 82.6676C111.714 83.0312 111.618 83.4148 111.618 83.8182ZM110.246 98L122.246 80.5455H124.479L112.479 98H110.246Z" fill="#A877FF"/>
<path d="M81.6538 118H79.8413L82.603 110H84.7827L87.5405 118H85.728L83.7241 111.828H83.6616L81.6538 118ZM81.5405 114.855H85.8218V116.176H81.5405V114.855ZM90.9038 118.117C90.2892 118.117 89.7606 117.987 89.3179 117.727C88.8778 117.464 88.5392 117.099 88.3022 116.633C88.0679 116.167 87.9507 115.63 87.9507 115.023C87.9507 114.409 88.0692 113.87 88.3062 113.406C88.5457 112.94 88.8856 112.577 89.3257 112.316C89.7658 112.053 90.2892 111.922 90.896 111.922C91.4194 111.922 91.8778 112.017 92.271 112.207C92.6642 112.397 92.9754 112.664 93.2046 113.008C93.4338 113.352 93.5601 113.755 93.5835 114.219H92.0132C91.9689 113.919 91.8517 113.678 91.6616 113.496C91.4741 113.311 91.228 113.219 90.9233 113.219C90.6655 113.219 90.4403 113.289 90.2476 113.43C90.0575 113.568 89.909 113.77 89.8022 114.035C89.6955 114.301 89.6421 114.622 89.6421 115C89.6421 115.383 89.6942 115.708 89.7983 115.977C89.9051 116.245 90.0549 116.449 90.2476 116.59C90.4403 116.73 90.6655 116.801 90.9233 116.801C91.1134 116.801 91.284 116.762 91.4351 116.684C91.5887 116.605 91.715 116.492 91.814 116.344C91.9155 116.193 91.9819 116.012 92.0132 115.801H93.5835C93.5575 116.259 93.4325 116.663 93.2085 117.012C92.9871 117.358 92.6812 117.629 92.2905 117.824C91.8999 118.02 91.4377 118.117 90.9038 118.117ZM97.8403 112V113.25H94.2271V112H97.8403ZM95.0474 110.562H96.7114V116.156C96.7114 116.31 96.7349 116.43 96.7817 116.516C96.8286 116.599 96.8937 116.658 96.9771 116.691C97.063 116.725 97.1619 116.742 97.2739 116.742C97.3521 116.742 97.4302 116.736 97.5083 116.723C97.5864 116.707 97.6463 116.695 97.688 116.687L97.9497 117.926C97.8664 117.952 97.7492 117.982 97.5981 118.016C97.4471 118.052 97.2635 118.074 97.0474 118.082C96.6463 118.098 96.2948 118.044 95.9927 117.922C95.6932 117.799 95.4601 117.609 95.2935 117.352C95.1268 117.094 95.0448 116.768 95.0474 116.375V110.562ZM98.9243 118V112H100.588V118H98.9243ZM99.7603 111.227C99.5129 111.227 99.3006 111.145 99.1235 110.98C98.9491 110.814 98.8618 110.615 98.8618 110.383C98.8618 110.154 98.9491 109.957 99.1235 109.793C99.3006 109.626 99.5129 109.543 99.7603 109.543C100.008 109.543 100.219 109.626 100.393 109.793C100.57 109.957 100.659 110.154 100.659 110.383C100.659 110.615 100.57 110.814 100.393 110.98C100.219 111.145 100.008 111.227 99.7603 111.227ZM107.515 112L105.417 118H103.542L101.445 112H103.203L104.449 116.293H104.511L105.753 112H107.515ZM108.367 118V112H110.031V118H108.367ZM109.203 111.227C108.955 111.227 108.743 111.145 108.566 110.98C108.391 110.814 108.304 110.615 108.304 110.383C108.304 110.154 108.391 109.957 108.566 109.793C108.743 109.626 108.955 109.543 109.203 109.543C109.45 109.543 109.661 109.626 109.835 109.793C110.013 109.957 110.101 110.154 110.101 110.383C110.101 110.615 110.013 110.814 109.835 110.98C109.661 111.145 109.45 111.227 109.203 111.227ZM114.555 112V113.25H110.942V112H114.555ZM111.762 110.562H113.426V116.156C113.426 116.31 113.45 116.43 113.497 116.516C113.543 116.599 113.609 116.658 113.692 116.691C113.778 116.725 113.877 116.742 113.989 116.742C114.067 116.742 114.145 116.736 114.223 116.723C114.301 116.707 114.361 116.695 114.403 116.687L114.665 117.926C114.581 117.952 114.464 117.982 114.313 118.016C114.162 118.052 113.978 118.074 113.762 118.082C113.361 118.098 113.01 118.044 112.708 117.922C112.408 117.799 112.175 117.609 112.008 117.352C111.842 117.094 111.76 116.768 111.762 116.375V110.562ZM116.667 120.25C116.456 120.25 116.258 120.233 116.073 120.199C115.89 120.168 115.739 120.128 115.62 120.078L115.995 118.836C116.19 118.896 116.366 118.928 116.522 118.934C116.681 118.939 116.818 118.902 116.932 118.824C117.049 118.746 117.144 118.613 117.217 118.426L117.315 118.172L115.163 112H116.913L118.155 116.406H118.217L119.471 112H121.233L118.901 118.648C118.789 118.971 118.637 119.253 118.444 119.492C118.254 119.734 118.013 119.921 117.721 120.051C117.43 120.184 117.078 120.25 116.667 120.25ZM89.9321 125.301C89.9009 124.986 89.7668 124.741 89.5298 124.566C89.2928 124.392 88.9712 124.305 88.5649 124.305C88.2889 124.305 88.0558 124.344 87.8657 124.422C87.6756 124.497 87.5298 124.603 87.4282 124.738C87.3293 124.874 87.2798 125.027 87.2798 125.199C87.2746 125.342 87.3045 125.467 87.3696 125.574C87.4373 125.681 87.5298 125.773 87.647 125.852C87.7642 125.927 87.8996 125.993 88.0532 126.051C88.2069 126.105 88.3709 126.152 88.5454 126.191L89.2642 126.363C89.6131 126.441 89.9334 126.546 90.2251 126.676C90.5168 126.806 90.7694 126.966 90.9829 127.156C91.1965 127.346 91.3618 127.57 91.479 127.828C91.5988 128.086 91.66 128.382 91.6626 128.715C91.66 129.204 91.535 129.629 91.2876 129.988C91.0428 130.345 90.6886 130.622 90.2251 130.82C89.7642 131.016 89.2082 131.113 88.5571 131.113C87.9113 131.113 87.3488 131.014 86.8696 130.816C86.3931 130.618 86.0207 130.326 85.7524 129.937C85.4868 129.547 85.3475 129.064 85.3345 128.488H86.9712C86.9894 128.757 87.0662 128.98 87.2017 129.16C87.3397 129.337 87.5233 129.471 87.7524 129.562C87.9842 129.651 88.2459 129.695 88.5376 129.695C88.8241 129.695 89.0728 129.654 89.2837 129.57C89.4972 129.487 89.6626 129.371 89.7798 129.223C89.897 129.074 89.9556 128.904 89.9556 128.711C89.9556 128.531 89.9022 128.38 89.7954 128.258C89.6912 128.135 89.5376 128.031 89.3345 127.945C89.134 127.859 88.8879 127.781 88.5962 127.711L87.7251 127.492C87.0506 127.328 86.5181 127.072 86.1274 126.723C85.7368 126.374 85.5428 125.904 85.5454 125.312C85.5428 124.828 85.6717 124.405 85.9321 124.043C86.1951 123.681 86.5558 123.398 87.0142 123.195C87.4725 122.992 87.9933 122.891 88.5767 122.891C89.1704 122.891 89.6886 122.992 90.1313 123.195C90.5767 123.398 90.923 123.681 91.1704 124.043C91.4178 124.405 91.5454 124.824 91.5532 125.301H89.9321ZM95.48 131.117C94.8654 131.117 94.3368 130.987 93.894 130.727C93.4539 130.464 93.1154 130.099 92.8784 129.633C92.644 129.167 92.5269 128.63 92.5269 128.023C92.5269 127.409 92.6453 126.87 92.8823 126.406C93.1219 125.94 93.4618 125.577 93.9019 125.316C94.342 125.053 94.8654 124.922 95.4722 124.922C95.9956 124.922 96.4539 125.017 96.8472 125.207C97.2404 125.397 97.5516 125.664 97.7808 126.008C98.0099 126.352 98.1362 126.755 98.1597 127.219H96.5894C96.5451 126.919 96.4279 126.678 96.2378 126.496C96.0503 126.311 95.8042 126.219 95.4995 126.219C95.2417 126.219 95.0164 126.289 94.8237 126.43C94.6336 126.568 94.4852 126.77 94.3784 127.035C94.2716 127.301 94.2183 127.622 94.2183 128C94.2183 128.383 94.2703 128.708 94.3745 128.977C94.4813 129.245 94.631 129.449 94.8237 129.59C95.0164 129.73 95.2417 129.801 95.4995 129.801C95.6896 129.801 95.8602 129.762 96.0112 129.684C96.1649 129.605 96.2912 129.492 96.3901 129.344C96.4917 129.193 96.5581 129.012 96.5894 128.801H98.1597C98.1336 129.259 98.0086 129.663 97.7847 130.012C97.5633 130.358 97.2573 130.629 96.8667 130.824C96.4761 131.02 96.0138 131.117 95.48 131.117ZM101.936 131.117C101.329 131.117 100.805 130.988 100.362 130.73C99.9217 130.47 99.5819 130.108 99.3423 129.645C99.1027 129.178 98.9829 128.638 98.9829 128.023C98.9829 127.404 99.1027 126.862 99.3423 126.398C99.5819 125.932 99.9217 125.57 100.362 125.312C100.805 125.052 101.329 124.922 101.936 124.922C102.543 124.922 103.066 125.052 103.506 125.312C103.949 125.57 104.29 125.932 104.53 126.398C104.769 126.862 104.889 127.404 104.889 128.023C104.889 128.638 104.769 129.178 104.53 129.645C104.29 130.108 103.949 130.47 103.506 130.73C103.066 130.988 102.543 131.117 101.936 131.117ZM101.944 129.828C102.22 129.828 102.45 129.75 102.635 129.594C102.82 129.435 102.959 129.219 103.053 128.945C103.15 128.672 103.198 128.361 103.198 128.012C103.198 127.663 103.15 127.352 103.053 127.078C102.959 126.805 102.82 126.589 102.635 126.43C102.45 126.271 102.22 126.191 101.944 126.191C101.665 126.191 101.431 126.271 101.241 126.43C101.053 126.589 100.911 126.805 100.815 127.078C100.721 127.352 100.674 127.663 100.674 128.012C100.674 128.361 100.721 128.672 100.815 128.945C100.911 129.219 101.053 129.435 101.241 129.594C101.431 129.75 101.665 129.828 101.944 129.828ZM105.971 131V125H107.584V126.047H107.647C107.756 125.674 107.94 125.393 108.198 125.203C108.456 125.01 108.752 124.914 109.088 124.914C109.172 124.914 109.262 124.919 109.358 124.93C109.454 124.94 109.539 124.954 109.612 124.973V126.449C109.534 126.426 109.426 126.405 109.288 126.387C109.15 126.368 109.023 126.359 108.909 126.359C108.664 126.359 108.445 126.413 108.252 126.52C108.062 126.624 107.911 126.77 107.799 126.957C107.69 127.145 107.635 127.361 107.635 127.605V131H105.971ZM112.927 131.117C112.31 131.117 111.779 130.992 111.333 130.742C110.891 130.49 110.55 130.133 110.31 129.672C110.07 129.208 109.951 128.66 109.951 128.027C109.951 127.41 110.07 126.868 110.31 126.402C110.55 125.936 110.887 125.573 111.322 125.312C111.759 125.052 112.272 124.922 112.861 124.922C113.257 124.922 113.625 124.986 113.966 125.113C114.31 125.238 114.61 125.427 114.865 125.68C115.123 125.932 115.323 126.25 115.466 126.633C115.61 127.013 115.681 127.458 115.681 127.969V128.426H110.615V127.395H114.115C114.115 127.155 114.063 126.943 113.958 126.758C113.854 126.573 113.71 126.428 113.525 126.324C113.343 126.217 113.13 126.164 112.888 126.164C112.636 126.164 112.412 126.223 112.216 126.34C112.024 126.454 111.873 126.609 111.763 126.805C111.654 126.997 111.598 127.212 111.595 127.449V128.43C111.595 128.727 111.65 128.983 111.759 129.199C111.871 129.415 112.029 129.582 112.232 129.699C112.435 129.816 112.676 129.875 112.955 129.875C113.139 129.875 113.309 129.849 113.462 129.797C113.616 129.745 113.748 129.667 113.857 129.562C113.966 129.458 114.05 129.331 114.107 129.18L115.646 129.281C115.568 129.651 115.408 129.974 115.166 130.25C114.926 130.523 114.616 130.737 114.236 130.891C113.858 131.042 113.422 131.117 112.927 131.117Z" fill="white"/>
</svg>
