<svg width="448" height="307" viewBox="0 0 448 307" fill="none" xmlns="http://www.w3.org/2000/svg">
<g filter="url(#filter0_b_0_3)">
<g clip-path="url(#clip0_0_3)">
<rect width="448" height="307" rx="30" fill="white" fill-opacity="0.03"/>
<path d="M-6 261.997L-6 260.238L-6 230.92C-6 226.821 -5.40599 224.017 -4.46988 222.128C-3.56871 220.308 -2.31988 219.267 -0.747242 218.686C0.902459 218.076 3.0279 217.933 5.67664 218.199C8.3125 218.463 11.3021 219.114 14.6071 219.954C16.2118 220.362 17.8912 220.815 19.6271 221.284C24.9357 222.718 30.7733 224.294 36.6242 225.147C44.4366 226.286 52.6024 226.2 60.1315 222.712C74.0581 216.259 79.1772 207.816 83.2838 201.043C83.4946 200.695 83.7028 200.352 83.9093 200.013C86.0203 196.554 87.8333 193.845 90.4765 191.93C93.0537 190.063 96.6257 188.818 102.477 188.818C114.925 188.818 122.74 187.534 130.584 183.149C137.99 179.008 145.341 172.131 156.798 161.411C157.219 161.017 157.645 160.618 158.078 160.214C160.949 157.528 163.598 156.159 166.044 155.666C168.477 155.177 170.885 155.518 173.35 156.557C178.404 158.686 183.448 163.624 188.74 169.703C190.495 171.718 192.279 173.863 194.085 176.034C197.582 180.238 201.159 184.538 204.751 188.175C210.193 193.685 216.179 198.238 222.819 198.833C226.431 199.157 230.734 197.457 235.257 194.75C239.868 191.99 245.068 187.96 250.586 183.101C261.629 173.376 274.156 160.144 286.108 146.583C309.997 119.479 331.81 90.8034 335.151 85.6731C338.319 80.8094 346.174 71.195 356.144 65.8303C361.099 63.164 366.472 61.6032 372.002 62.0878C377.498 62.5696 383.365 65.0904 389.317 70.9697C402.211 83.7071 418.374 88.4387 431.341 90.3355C437.833 91.2851 443.573 91.5306 447.729 91.6988L447.951 91.7078C449.95 91.7885 451.502 91.8513 452.616 91.9632C452.757 91.9773 452.884 91.9916 453 92.0061L-6 261.997ZM-6 261.997L-6 263.621L-6 263.973L-6 263.997C-6.69338 263.304 -7.38973 263.093 -8 263.112L-6 261.997ZM455 263.997H453V261.997H455V263.997Z" fill="url(#paint0_linear_0_3)" stroke="url(#paint1_linear_0_3)" stroke-width="4"/>
<circle cx="369" cy="60" r="8" fill="#ACACAC"/>
<g filter="url(#filter1_b_0_3)">
<rect x="200" y="31" width="155" height="61" rx="11" fill="#D9D9D9" fill-opacity="0.07"/>
<rect x="200.5" y="31.5" width="154" height="60" rx="10.5" stroke="url(#paint2_linear_0_3)"/>
</g>
<path d="M211.785 60.6591V50.9091H213.724V52.1001H213.811C213.898 51.9093 214.022 51.7154 214.185 51.5185C214.352 51.3184 214.567 51.1522 214.832 51.0199C215.099 50.8845 215.432 50.8168 215.829 50.8168C216.346 50.8168 216.823 50.9522 217.26 51.223C217.697 51.4908 218.046 51.8955 218.308 52.4371C218.569 52.9757 218.7 53.6513 218.7 54.4638C218.7 55.2547 218.573 55.9226 218.317 56.4673C218.065 57.009 217.72 57.4199 217.283 57.6999C216.849 57.9769 216.363 58.1154 215.824 58.1154C215.443 58.1154 215.118 58.0523 214.85 57.9261C214.585 57.8 214.368 57.6415 214.199 57.4506C214.03 57.2567 213.901 57.0613 213.811 56.8643H213.751V60.6591H211.785ZM213.71 54.4545C213.71 54.8762 213.768 55.244 213.885 55.5579C214.002 55.8718 214.172 56.1165 214.393 56.2919C214.615 56.4643 214.884 56.5504 215.201 56.5504C215.521 56.5504 215.792 56.4627 216.013 56.2873C216.235 56.1088 216.403 55.8626 216.517 55.5487C216.634 55.2317 216.692 54.867 216.692 54.4545C216.692 54.0452 216.635 53.6851 216.521 53.3743C216.407 53.0634 216.24 52.8203 216.018 52.6449C215.797 52.4695 215.524 52.3817 215.201 52.3817C214.881 52.3817 214.61 52.4664 214.388 52.6357C214.17 52.8049 214.002 53.045 213.885 53.3558C213.768 53.6667 213.71 54.0329 213.71 54.4545ZM223.243 58.1385C222.513 58.1385 221.886 57.9908 221.359 57.6953C220.836 57.3968 220.433 56.9751 220.15 56.4304C219.867 55.8826 219.725 55.2347 219.725 54.4869C219.725 53.7575 219.867 53.1173 220.15 52.5664C220.433 52.0155 220.832 51.5862 221.346 51.2784C221.863 50.9706 222.469 50.8168 223.164 50.8168C223.632 50.8168 224.068 50.8922 224.471 51.043C224.877 51.1907 225.231 51.4138 225.533 51.7124C225.837 52.0109 226.074 52.3864 226.244 52.8388C226.413 53.2881 226.498 53.8144 226.498 54.4176V54.9577H220.51V53.739H224.646C224.646 53.4558 224.585 53.205 224.462 52.9865C224.339 52.768 224.168 52.5972 223.949 52.4741C223.734 52.3479 223.483 52.2848 223.197 52.2848C222.898 52.2848 222.634 52.354 222.403 52.4925C222.175 52.628 221.996 52.8111 221.867 53.0419C221.738 53.2696 221.672 53.5236 221.669 53.8036V54.9624C221.669 55.3132 221.733 55.6164 221.863 55.8718C221.995 56.1272 222.181 56.3242 222.421 56.4627C222.661 56.6012 222.946 56.6705 223.275 56.6705C223.494 56.6705 223.694 56.6397 223.875 56.5781C224.057 56.5166 224.212 56.4242 224.342 56.3011C224.471 56.178 224.569 56.0272 224.637 55.8487L226.456 55.9688C226.364 56.4058 226.174 56.7874 225.888 57.1136C225.605 57.4368 225.239 57.6892 224.789 57.8707C224.343 58.0492 223.828 58.1385 223.243 58.1385ZM229.803 58.1339C229.35 58.1339 228.947 58.0554 228.593 57.8984C228.239 57.7384 227.959 57.503 227.753 57.1921C227.55 56.8782 227.449 56.4873 227.449 56.0195C227.449 55.6256 227.521 55.2947 227.665 55.027C227.81 54.7592 228.007 54.5438 228.256 54.3807C228.506 54.2176 228.789 54.0945 229.106 54.0114C229.426 53.9283 229.761 53.8698 230.112 53.8359C230.525 53.7929 230.857 53.7528 231.109 53.7159C231.362 53.6759 231.545 53.6174 231.659 53.5405C231.773 53.4635 231.83 53.3497 231.83 53.1989V53.1712C231.83 52.8788 231.737 52.6526 231.553 52.4925C231.371 52.3325 231.112 52.2525 230.777 52.2525C230.423 52.2525 230.141 52.331 229.932 52.4879C229.723 52.6418 229.584 52.8357 229.517 53.0696L227.698 52.9219C227.79 52.491 227.972 52.1186 228.243 51.8047C228.513 51.4877 228.863 51.2446 229.29 51.0753C229.721 50.9029 230.22 50.8168 230.786 50.8168C231.18 50.8168 231.557 50.8629 231.917 50.9553C232.28 51.0476 232.602 51.1907 232.882 51.3846C233.165 51.5785 233.388 51.8278 233.551 52.1325C233.715 52.4341 233.796 52.7957 233.796 53.2173V58H231.931V57.0167H231.876C231.762 57.2383 231.609 57.4337 231.419 57.603C231.228 57.7692 230.999 57.9 230.731 57.9954C230.463 58.0877 230.154 58.1339 229.803 58.1339ZM230.366 56.7766C230.655 56.7766 230.911 56.7197 231.132 56.6058C231.354 56.4889 231.528 56.3319 231.654 56.1349C231.78 55.938 231.843 55.7148 231.843 55.4656V54.7131C231.782 54.7531 231.697 54.79 231.589 54.8239C231.485 54.8546 231.366 54.8839 231.234 54.9116C231.102 54.9362 230.969 54.9593 230.837 54.9808C230.705 54.9993 230.585 55.0162 230.477 55.0316C230.246 55.0655 230.045 55.1193 229.872 55.1932C229.7 55.267 229.566 55.3671 229.471 55.4933C229.375 55.6164 229.327 55.7702 229.327 55.9549C229.327 56.2227 229.424 56.4273 229.618 56.5689C229.815 56.7074 230.065 56.7766 230.366 56.7766ZM237.104 55.9595L237.108 53.6005H237.395L239.666 50.9091H241.923L238.872 54.473H238.406L237.104 55.9595ZM235.322 58V48.5455H237.289V58H235.322ZM239.754 58L237.667 54.9116L238.978 53.522L242.057 58H239.754ZM245.897 60.6591V50.9091H247.836V52.1001H247.924C248.01 51.9093 248.135 51.7154 248.298 51.5185C248.464 51.3184 248.679 51.1522 248.944 51.0199C249.212 50.8845 249.544 50.8168 249.941 50.8168C250.458 50.8168 250.935 50.9522 251.372 51.223C251.809 51.4908 252.159 51.8955 252.42 52.4371C252.682 52.9757 252.813 53.6513 252.813 54.4638C252.813 55.2547 252.685 55.9226 252.429 56.4673C252.177 57.009 251.832 57.4199 251.395 57.6999C250.961 57.9769 250.475 58.1154 249.937 58.1154C249.555 58.1154 249.23 58.0523 248.962 57.9261C248.698 57.8 248.481 57.6415 248.312 57.4506C248.142 57.2567 248.013 57.0613 247.924 56.8643H247.864V60.6591H245.897ZM247.822 54.4545C247.822 54.8762 247.881 55.244 247.998 55.5579C248.115 55.8718 248.284 56.1165 248.505 56.2919C248.727 56.4643 248.996 56.5504 249.313 56.5504C249.633 56.5504 249.904 56.4627 250.126 56.2873C250.347 56.1088 250.515 55.8626 250.629 55.5487C250.746 55.2317 250.804 54.867 250.804 54.4545C250.804 54.0452 250.747 53.6851 250.634 53.3743C250.52 53.0634 250.352 52.8203 250.13 52.6449C249.909 52.4695 249.636 52.3817 249.313 52.3817C248.993 52.3817 248.722 52.4664 248.501 52.6357C248.282 52.8049 248.115 53.045 247.998 53.3558C247.881 53.6667 247.822 54.0329 247.822 54.4545ZM257.328 58.1385C256.61 58.1385 255.99 57.9862 255.467 57.6815C254.947 57.3737 254.545 56.9459 254.262 56.3981C253.979 55.8472 253.837 55.2086 253.837 54.4822C253.837 53.7498 253.979 53.1096 254.262 52.5618C254.545 52.0109 254.947 51.5831 255.467 51.2784C255.99 50.9706 256.61 50.8168 257.328 50.8168C258.045 50.8168 258.663 50.9706 259.183 51.2784C259.707 51.5831 260.11 52.0109 260.393 52.5618C260.676 53.1096 260.818 53.7498 260.818 54.4822C260.818 55.2086 260.676 55.8472 260.393 56.3981C260.11 56.9459 259.707 57.3737 259.183 57.6815C258.663 57.9862 258.045 58.1385 257.328 58.1385ZM257.337 56.6151C257.663 56.6151 257.935 56.5227 258.154 56.3381C258.372 56.1503 258.537 55.8949 258.648 55.5717C258.762 55.2486 258.819 54.8808 258.819 54.4684C258.819 54.056 258.762 53.6882 258.648 53.3651C258.537 53.0419 258.372 52.7865 258.154 52.5987C257.935 52.411 257.663 52.3171 257.337 52.3171C257.007 52.3171 256.73 52.411 256.506 52.5987C256.284 52.7865 256.116 53.0419 256.003 53.3651C255.892 53.6882 255.836 54.056 255.836 54.4684C255.836 54.8808 255.892 55.2486 256.003 55.5717C256.116 55.8949 256.284 56.1503 256.506 56.3381C256.73 56.5227 257.007 56.6151 257.337 56.6151ZM262.096 58V50.9091H264.063V58H262.096ZM263.084 49.995C262.792 49.995 262.541 49.8981 262.332 49.7042C262.126 49.5072 262.022 49.2718 262.022 48.9979C262.022 48.727 262.126 48.4947 262.332 48.3008C262.541 48.1038 262.792 48.0053 263.084 48.0053C263.377 48.0053 263.626 48.1038 263.832 48.3008C264.041 48.4947 264.146 48.727 264.146 48.9979C264.146 49.2718 264.041 49.5072 263.832 49.7042C263.626 49.8981 263.377 49.995 263.084 49.995ZM267.605 53.9006V58H265.638V50.9091H267.513V52.1602H267.596C267.753 51.7478 268.016 51.4215 268.385 51.1815C268.754 50.9383 269.202 50.8168 269.729 50.8168C270.221 50.8168 270.65 50.9245 271.017 51.1399C271.383 51.3554 271.667 51.6631 271.871 52.0632C272.074 52.4602 272.175 52.9342 272.175 53.4851V58H270.209V53.8359C270.212 53.402 270.101 53.0634 269.876 52.8203C269.652 52.5741 269.342 52.451 268.948 52.451C268.684 52.451 268.45 52.5079 268.247 52.6218C268.047 52.7357 267.89 52.9019 267.776 53.1204C267.665 53.3358 267.608 53.5959 267.605 53.9006ZM277.497 50.9091V52.3864H273.227V50.9091H277.497ZM274.196 49.2102H276.163V55.821C276.163 56.0026 276.19 56.1442 276.246 56.2457C276.301 56.3442 276.378 56.4135 276.477 56.4535C276.578 56.4935 276.695 56.5135 276.828 56.5135C276.92 56.5135 277.012 56.5058 277.104 56.4904C277.197 56.4719 277.268 56.4581 277.317 56.4489L277.626 57.9123C277.528 57.9431 277.389 57.9785 277.211 58.0185C277.032 58.0616 276.815 58.0877 276.56 58.0969C276.086 58.1154 275.67 58.0523 275.313 57.9077C274.959 57.763 274.684 57.5384 274.487 57.2337C274.29 56.929 274.193 56.5443 274.196 56.0795V49.2102Z" fill="#ACACAC"/>
<path d="M214.754 65.7273V73H213.216V67.1868H213.173L211.508 68.2308V66.8672L213.308 65.7273H214.754ZM216.482 73V71.892L219.071 69.495C219.291 69.282 219.476 69.0902 219.625 68.9197C219.776 68.7493 219.891 68.5824 219.969 68.419C220.047 68.2533 220.086 68.0746 220.086 67.8828C220.086 67.6697 220.038 67.4863 219.941 67.3324C219.844 67.1761 219.711 67.0566 219.543 66.9737C219.375 66.8885 219.184 66.8459 218.971 66.8459C218.749 66.8459 218.555 66.8909 218.389 66.9808C218.223 67.0708 218.095 67.1998 218.006 67.3679C217.916 67.536 217.871 67.736 217.871 67.968H216.411C216.411 67.4922 216.519 67.0791 216.734 66.7287C216.95 66.3783 217.251 66.1072 217.64 65.9155C218.028 65.7237 218.475 65.6278 218.982 65.6278C219.503 65.6278 219.956 65.7202 220.342 65.9048C220.73 66.0871 221.032 66.3404 221.248 66.6648C221.463 66.9891 221.571 67.3608 221.571 67.7798C221.571 68.0545 221.516 68.3255 221.407 68.593C221.301 68.8606 221.11 69.1577 220.836 69.4844C220.561 69.8087 220.174 70.1982 219.675 70.6527L218.613 71.6932V71.7429H221.667V73H216.482ZM225.963 65.3864L223.619 74.0938H222.316L224.659 65.3864H225.963ZM226.677 73V71.892L229.266 69.495C229.486 69.282 229.671 69.0902 229.82 68.9197C229.972 68.7493 230.086 68.5824 230.165 68.419C230.243 68.2533 230.282 68.0746 230.282 67.8828C230.282 67.6697 230.233 67.4863 230.136 67.3324C230.039 67.1761 229.907 67.0566 229.738 66.9737C229.57 66.8885 229.38 66.8459 229.167 66.8459C228.944 66.8459 228.75 66.8909 228.584 66.9808C228.419 67.0708 228.291 67.1998 228.201 67.3679C228.111 67.536 228.066 67.736 228.066 67.968H226.606C226.606 67.4922 226.714 67.0791 226.93 66.7287C227.145 66.3783 227.447 66.1072 227.835 65.9155C228.223 65.7237 228.671 65.6278 229.177 65.6278C229.698 65.6278 230.152 65.7202 230.537 65.9048C230.926 66.0871 231.228 66.3404 231.443 66.6648C231.658 66.9891 231.766 67.3608 231.766 67.7798C231.766 68.0545 231.712 68.3255 231.603 68.593C231.496 68.8606 231.306 69.1577 231.031 69.4844C230.756 69.8087 230.369 70.1982 229.87 70.6527L228.808 71.6932V71.7429H231.862V73H226.677ZM235.664 73.0994C235.134 73.0994 234.662 73.0083 234.248 72.826C233.836 72.6413 233.51 72.388 233.271 72.0661C233.034 71.7417 232.912 71.3677 232.905 70.9439H234.453C234.463 71.1214 234.521 71.2777 234.627 71.4126C234.736 71.5452 234.881 71.6482 235.061 71.7216C235.241 71.795 235.443 71.8317 235.668 71.8317C235.902 71.8317 236.109 71.7902 236.289 71.7074C236.469 71.6245 236.61 71.5097 236.712 71.3629C236.814 71.2161 236.865 71.0469 236.865 70.8551C236.865 70.661 236.81 70.4893 236.701 70.3402C236.595 70.1887 236.441 70.0703 236.24 69.9851C236.041 69.8999 235.804 69.8572 235.529 69.8572H234.851V68.728H235.529C235.761 68.728 235.966 68.6877 236.144 68.6072C236.324 68.5268 236.463 68.4155 236.563 68.2734C236.662 68.129 236.712 67.9609 236.712 67.7692C236.712 67.5869 236.668 67.4271 236.581 67.2898C236.495 67.1501 236.375 67.0412 236.218 66.9631C236.065 66.8849 235.885 66.8459 235.679 66.8459C235.47 66.8459 235.28 66.8838 235.107 66.9595C234.934 67.0329 234.796 67.1383 234.691 67.2756C234.587 67.4129 234.532 67.5739 234.525 67.7585H233.051C233.058 67.3395 233.177 66.9702 233.409 66.6506C233.641 66.331 233.954 66.0812 234.347 65.9013C234.742 65.719 235.189 65.6278 235.686 65.6278C236.188 65.6278 236.627 65.719 237.003 65.9013C237.38 66.0836 237.672 66.3298 237.88 66.6399C238.091 66.9477 238.195 67.2933 238.193 67.6768C238.195 68.084 238.069 68.4238 237.813 68.696C237.56 68.9683 237.229 69.1411 236.822 69.2145V69.2713C237.357 69.34 237.764 69.5258 238.044 69.8288C238.325 70.1295 238.465 70.5059 238.463 70.9581C238.465 71.3724 238.346 71.7405 238.104 72.0625C237.865 72.3845 237.535 72.6378 237.113 72.8224C236.692 73.0071 236.209 73.0994 235.664 73.0994ZM242.75 65.3864L240.406 74.0938H239.103L241.447 65.3864H242.75ZM243.464 73V71.892L246.053 69.495C246.273 69.282 246.458 69.0902 246.607 68.9197C246.759 68.7493 246.874 68.5824 246.952 68.419C247.03 68.2533 247.069 68.0746 247.069 67.8828C247.069 67.6697 247.02 67.4863 246.923 67.3324C246.826 67.1761 246.694 67.0566 246.526 66.9737C246.357 66.8885 246.167 66.8459 245.954 66.8459C245.731 66.8459 245.537 66.8909 245.371 66.9808C245.206 67.0708 245.078 67.1998 244.988 67.3679C244.898 67.536 244.853 67.736 244.853 67.968H243.393C243.393 67.4922 243.501 67.0791 243.717 66.7287C243.932 66.3783 244.234 66.1072 244.622 65.9155C245.01 65.7237 245.458 65.6278 245.964 65.6278C246.485 65.6278 246.939 65.7202 247.325 65.9048C247.713 66.0871 248.015 66.3404 248.23 66.6648C248.446 66.9891 248.553 67.3608 248.553 67.7798C248.553 68.0545 248.499 68.3255 248.39 68.593C248.283 68.8606 248.093 69.1577 247.818 69.4844C247.544 69.8087 247.156 70.1982 246.657 70.6527L245.595 71.6932V71.7429H248.649V73H243.464ZM252.615 73.1598C252.004 73.1574 251.479 73.0071 251.038 72.7088C250.6 72.4105 250.263 71.9785 250.026 71.4126C249.792 70.8468 249.676 70.1662 249.678 69.3707C249.678 68.5777 249.795 67.9018 250.03 67.343C250.266 66.7843 250.604 66.3594 251.042 66.0682C251.482 65.7746 252.006 65.6278 252.615 65.6278C253.223 65.6278 253.747 65.7746 254.184 66.0682C254.625 66.3617 254.963 66.7879 255.2 67.3466C255.437 67.9029 255.554 68.5777 255.552 69.3707C255.552 70.1686 255.433 70.8504 255.197 71.4162C254.962 71.982 254.626 72.4141 254.188 72.7124C253.75 73.0107 253.226 73.1598 252.615 73.1598ZM252.615 71.8849C253.032 71.8849 253.364 71.6754 253.613 71.2564C253.861 70.8374 253.984 70.2088 253.982 69.3707C253.982 68.8191 253.925 68.3598 253.812 67.9929C253.7 67.6259 253.542 67.3501 253.336 67.1655C253.132 66.9808 252.892 66.8885 252.615 66.8885C252.201 66.8885 251.869 67.0956 251.621 67.5099C251.372 67.9242 251.247 68.5445 251.244 69.3707C251.244 69.9295 251.3 70.3958 251.411 70.7699C251.525 71.1416 251.684 71.4209 251.89 71.608C252.096 71.7926 252.338 71.8849 252.615 71.8849ZM256.648 73V71.892L259.237 69.495C259.457 69.282 259.642 69.0902 259.791 68.9197C259.942 68.7493 260.057 68.5824 260.135 68.419C260.213 68.2533 260.252 68.0746 260.252 67.8828C260.252 67.6697 260.204 67.4863 260.107 67.3324C260.01 67.1761 259.877 67.0566 259.709 66.9737C259.541 66.8885 259.35 66.8459 259.137 66.8459C258.915 66.8459 258.721 66.8909 258.555 66.9808C258.389 67.0708 258.261 67.1998 258.172 67.3679C258.082 67.536 258.037 67.736 258.037 67.968H256.577C256.577 67.4922 256.685 67.0791 256.9 66.7287C257.116 66.3783 257.417 66.1072 257.806 65.9155C258.194 65.7237 258.641 65.6278 259.148 65.6278C259.669 65.6278 260.122 65.7202 260.508 65.9048C260.896 66.0871 261.198 66.3404 261.414 66.6648C261.629 66.9891 261.737 67.3608 261.737 67.7798C261.737 68.0545 261.682 68.3255 261.574 68.593C261.467 68.8606 261.276 69.1577 261.002 69.4844C260.727 69.8087 260.34 70.1982 259.841 70.6527L258.779 71.6932V71.7429H261.833V73H256.648ZM265.635 73.0994C265.105 73.0994 264.633 73.0083 264.218 72.826C263.806 72.6413 263.481 72.388 263.242 72.0661C263.005 71.7417 262.883 71.3677 262.876 70.9439H264.424C264.434 71.1214 264.492 71.2777 264.598 71.4126C264.707 71.5452 264.852 71.6482 265.031 71.7216C265.211 71.795 265.414 71.8317 265.639 71.8317C265.873 71.8317 266.08 71.7902 266.26 71.7074C266.44 71.6245 266.581 71.5097 266.683 71.3629C266.785 71.2161 266.835 71.0469 266.835 70.8551C266.835 70.661 266.781 70.4893 266.672 70.3402C266.566 70.1887 266.412 70.0703 266.21 69.9851C266.012 69.8999 265.775 69.8572 265.5 69.8572H264.822V68.728H265.5C265.732 68.728 265.937 68.6877 266.115 68.6072C266.294 68.5268 266.434 68.4155 266.534 68.2734C266.633 68.129 266.683 67.9609 266.683 67.7692C266.683 67.5869 266.639 67.4271 266.551 67.2898C266.466 67.1501 266.345 67.0412 266.189 66.9631C266.035 66.8849 265.855 66.8459 265.649 66.8459C265.441 66.8459 265.25 66.8838 265.078 66.9595C264.905 67.0329 264.766 67.1383 264.662 67.2756C264.558 67.4129 264.502 67.5739 264.495 67.7585H263.021C263.029 67.3395 263.148 66.9702 263.38 66.6506C263.612 66.331 263.925 66.0812 264.318 65.9013C264.713 65.719 265.159 65.6278 265.656 65.6278C266.158 65.6278 266.597 65.719 266.974 65.9013C267.35 66.0836 267.643 66.3298 267.851 66.6399C268.062 66.9477 268.166 67.2933 268.164 67.6768C268.166 68.084 268.039 68.4238 267.784 68.696C267.53 68.9683 267.2 69.1411 266.793 69.2145V69.2713C267.328 69.34 267.735 69.5258 268.014 69.8288C268.296 70.1295 268.436 70.5059 268.433 70.9581C268.436 71.3724 268.316 71.7405 268.075 72.0625C267.836 72.3845 267.505 72.6378 267.084 72.8224C266.663 73.0071 266.18 73.0994 265.635 73.0994ZM276.537 74.0795C275.782 74.0795 275.11 73.9766 274.52 73.7706C273.931 73.567 273.432 73.2687 273.025 72.8757C272.618 72.4804 272.308 71.9986 272.095 71.4304C271.882 70.8622 271.775 70.2159 271.775 69.4915C271.775 68.7765 271.882 68.1278 272.095 67.5455C272.31 66.9631 272.624 66.4635 273.036 66.0469C273.448 65.6278 273.951 65.3059 274.545 65.081C275.142 64.8561 275.821 64.7436 276.583 64.7436C277.289 64.7436 277.919 64.8466 278.472 65.0526C279.029 65.2585 279.5 65.5521 279.886 65.9332C280.274 66.312 280.569 66.763 280.77 67.2862C280.974 67.8071 281.074 68.3835 281.072 69.0156C281.074 69.4512 281.036 69.8513 280.958 70.2159C280.88 70.5805 280.757 70.8989 280.589 71.1712C280.423 71.4411 280.205 71.6553 279.936 71.8139C279.666 71.9702 279.339 72.0589 278.955 72.0803C278.681 72.1016 278.458 72.0814 278.288 72.0199C278.117 71.9583 277.987 71.8672 277.897 71.7464C277.81 71.6233 277.753 71.4801 277.727 71.3168H277.684C277.627 71.4588 277.516 71.5878 277.35 71.7038C277.185 71.8175 276.982 71.9062 276.743 71.9702C276.506 72.0317 276.254 72.0542 275.987 72.0376C275.707 72.0211 275.442 71.956 275.191 71.8423C274.943 71.7287 274.721 71.5642 274.527 71.3487C274.335 71.1333 274.184 70.867 274.073 70.5497C273.964 70.2325 273.908 69.8655 273.906 69.4489C273.908 69.0369 273.966 68.6783 274.08 68.3729C274.196 68.0675 274.348 67.8106 274.538 67.6023C274.73 67.3939 274.943 67.2306 275.177 67.1122C275.411 66.9938 275.647 66.9181 275.884 66.8849C276.151 66.8447 276.405 66.8447 276.644 66.8849C276.883 66.9252 277.084 66.9903 277.247 67.0803C277.413 67.1702 277.516 67.2673 277.556 67.3714H277.606V66.9737H278.718V70.4396C278.72 70.603 278.757 70.7296 278.828 70.8196C278.899 70.9096 278.994 70.9545 279.115 70.9545C279.279 70.9545 279.415 70.8823 279.524 70.7379C279.635 70.5935 279.718 70.3722 279.772 70.0739C279.829 69.7756 279.857 69.3956 279.857 68.9339C279.857 68.4889 279.798 68.0982 279.68 67.7621C279.564 67.4235 279.401 67.1359 279.19 66.8991C278.981 66.66 278.739 66.4659 278.462 66.3168C278.185 66.1676 277.884 66.0587 277.56 65.9901C277.238 65.9214 276.906 65.8871 276.566 65.8871C275.976 65.8871 275.461 65.977 275.021 66.157C274.58 66.3345 274.213 66.5843 273.92 66.9062C273.626 67.2282 273.406 67.6058 273.259 68.0391C273.115 68.4699 273.042 68.9399 273.039 69.4489C273.042 70.0099 273.12 70.5071 273.274 70.9403C273.43 71.3712 273.66 71.7334 273.963 72.027C274.266 72.3205 274.64 72.5431 275.085 72.6946C275.53 72.8461 276.041 72.9219 276.619 72.9219C276.891 72.9219 277.157 72.9029 277.418 72.8651C277.678 72.8248 277.914 72.7775 278.124 72.723C278.335 72.6662 278.504 72.6117 278.632 72.5597L278.984 73.5895C278.835 73.6747 278.632 73.754 278.377 73.8274C278.123 73.9032 277.837 73.9635 277.517 74.0085C277.2 74.0559 276.873 74.0795 276.537 74.0795ZM276.374 70.8693C276.663 70.8693 276.892 70.8137 277.063 70.7024C277.235 70.5911 277.359 70.4266 277.432 70.2088C277.508 69.9886 277.543 69.7176 277.539 69.3956C277.536 69.1115 277.499 68.8712 277.428 68.6747C277.36 68.4759 277.24 68.3255 277.07 68.2237C276.902 68.1196 276.667 68.0675 276.367 68.0675C276.104 68.0675 275.88 68.1231 275.695 68.2344C275.513 68.3456 275.374 68.5019 275.276 68.7031C275.182 68.902 275.133 69.1364 275.131 69.4062C275.133 69.6572 275.173 69.8951 275.252 70.12C275.33 70.3426 275.459 70.5237 275.639 70.6634C275.819 70.8007 276.064 70.8693 276.374 70.8693ZM287.634 65.7273V73H286.097V67.1868H286.054L284.389 68.2308V66.8672L286.189 65.7273H287.634ZM289.363 73V71.892L291.952 69.495C292.172 69.282 292.357 69.0902 292.506 68.9197C292.657 68.7493 292.772 68.5824 292.85 68.419C292.928 68.2533 292.967 68.0746 292.967 67.8828C292.967 67.6697 292.919 67.4863 292.822 67.3324C292.725 67.1761 292.592 67.0566 292.424 66.9737C292.256 66.8885 292.065 66.8459 291.852 66.8459C291.63 66.8459 291.436 66.8909 291.27 66.9808C291.104 67.0708 290.976 67.1998 290.886 67.3679C290.796 67.536 290.751 67.736 290.751 67.968H289.292C289.292 67.4922 289.4 67.0791 289.615 66.7287C289.83 66.3783 290.132 66.1072 290.521 65.9155C290.909 65.7237 291.356 65.6278 291.863 65.6278C292.384 65.6278 292.837 65.7202 293.223 65.9048C293.611 66.0871 293.913 66.3404 294.129 66.6648C294.344 66.9891 294.452 67.3608 294.452 67.7798C294.452 68.0545 294.397 68.3255 294.288 68.593C294.182 68.8606 293.991 69.1577 293.717 69.4844C293.442 69.8087 293.055 70.1982 292.555 70.6527L291.494 71.6932V71.7429H294.548V73H289.363ZM296.56 72.1548C296.326 72.1548 296.125 72.072 295.956 71.9062C295.791 71.7405 295.708 71.5393 295.708 71.3026C295.708 71.0705 295.791 70.8717 295.956 70.706C296.125 70.5402 296.326 70.4574 296.56 70.4574C296.787 70.4574 296.986 70.5402 297.157 70.706C297.327 70.8717 297.412 71.0705 297.412 71.3026C297.412 71.4588 297.372 71.602 297.292 71.7322C297.214 71.8601 297.111 71.9631 296.983 72.0412C296.855 72.117 296.714 72.1548 296.56 72.1548ZM296.56 68.5859C296.326 68.5859 296.125 68.5031 295.956 68.3374C295.791 68.1716 295.708 67.9704 295.708 67.7337C295.708 67.5017 295.791 67.304 295.956 67.1406C296.125 66.9749 296.326 66.892 296.56 66.892C296.787 66.892 296.986 66.9749 297.157 67.1406C297.327 67.304 297.412 67.5017 297.412 67.7337C297.412 67.8923 297.372 68.0367 297.292 68.1669C297.214 68.2947 297.111 68.3965 296.983 68.4723C296.855 68.5481 296.714 68.5859 296.56 68.5859ZM298.64 73V71.892L301.229 69.495C301.449 69.282 301.634 69.0902 301.783 68.9197C301.935 68.7493 302.049 68.5824 302.127 68.419C302.206 68.2533 302.245 68.0746 302.245 67.8828C302.245 67.6697 302.196 67.4863 302.099 67.3324C302.002 67.1761 301.869 67.0566 301.701 66.9737C301.533 66.8885 301.343 66.8459 301.13 66.8459C300.907 66.8459 300.713 66.8909 300.547 66.9808C300.382 67.0708 300.254 67.1998 300.164 67.3679C300.074 67.536 300.029 67.736 300.029 67.968H298.569C298.569 67.4922 298.677 67.0791 298.892 66.7287C299.108 66.3783 299.41 66.1072 299.798 65.9155C300.186 65.7237 300.634 65.6278 301.14 65.6278C301.661 65.6278 302.114 65.7202 302.5 65.9048C302.889 66.0871 303.19 66.3404 303.406 66.6648C303.621 66.9891 303.729 67.3608 303.729 67.7798C303.729 68.0545 303.675 68.3255 303.566 68.593C303.459 68.8606 303.269 69.1577 302.994 69.4844C302.719 69.8087 302.332 70.1982 301.833 70.6527L300.771 71.6932V71.7429H303.825V73H298.64ZM307.627 73.0994C307.097 73.0994 306.625 73.0083 306.21 72.826C305.798 72.6413 305.473 72.388 305.234 72.0661C304.997 71.7417 304.875 71.3677 304.868 70.9439H306.416C306.426 71.1214 306.484 71.2777 306.59 71.4126C306.699 71.5452 306.844 71.6482 307.024 71.7216C307.204 71.795 307.406 71.8317 307.631 71.8317C307.865 71.8317 308.072 71.7902 308.252 71.7074C308.432 71.6245 308.573 71.5097 308.675 71.3629C308.777 71.2161 308.828 71.0469 308.828 70.8551C308.828 70.661 308.773 70.4893 308.664 70.3402C308.558 70.1887 308.404 70.0703 308.203 69.9851C308.004 69.8999 307.767 69.8572 307.492 69.8572H306.814V68.728H307.492C307.724 68.728 307.929 68.6877 308.107 68.6072C308.287 68.5268 308.426 68.4155 308.526 68.2734C308.625 68.129 308.675 67.9609 308.675 67.7692C308.675 67.5869 308.631 67.4271 308.544 67.2898C308.458 67.1501 308.338 67.0412 308.181 66.9631C308.027 66.8849 307.847 66.8459 307.642 66.8459C307.433 66.8459 307.243 66.8838 307.07 66.9595C306.897 67.0329 306.758 67.1383 306.654 67.2756C306.55 67.4129 306.494 67.5739 306.487 67.7585H305.014C305.021 67.3395 305.14 66.9702 305.372 66.6506C305.604 66.331 305.917 66.0812 306.31 65.9013C306.705 65.719 307.151 65.6278 307.649 65.6278C308.151 65.6278 308.59 65.719 308.966 65.9013C309.343 66.0836 309.635 66.3298 309.843 66.6399C310.054 66.9477 310.158 67.2933 310.156 67.6768C310.158 68.084 310.031 68.4238 309.776 68.696C309.522 68.9683 309.192 69.1411 308.785 69.2145V69.2713C309.32 69.34 309.727 69.5258 310.007 69.8288C310.288 70.1295 310.428 70.5059 310.426 70.9581C310.428 71.3724 310.308 71.7405 310.067 72.0625C309.828 72.3845 309.498 72.6378 309.076 72.8224C308.655 73.0071 308.172 73.0994 307.627 73.0994ZM312.429 72.1548C312.195 72.1548 311.994 72.072 311.826 71.9062C311.66 71.7405 311.577 71.5393 311.577 71.3026C311.577 71.0705 311.66 70.8717 311.826 70.706C311.994 70.5402 312.195 70.4574 312.429 70.4574C312.657 70.4574 312.855 70.5402 313.026 70.706C313.196 70.8717 313.282 71.0705 313.282 71.3026C313.282 71.4588 313.241 71.602 313.161 71.7322C313.083 71.8601 312.98 71.9631 312.852 72.0412C312.724 72.117 312.583 72.1548 312.429 72.1548ZM312.429 68.5859C312.195 68.5859 311.994 68.5031 311.826 68.3374C311.66 68.1716 311.577 67.9704 311.577 67.7337C311.577 67.5017 311.66 67.304 311.826 67.1406C311.994 66.9749 312.195 66.892 312.429 66.892C312.657 66.892 312.855 66.9749 313.026 67.1406C313.196 67.304 313.282 67.5017 313.282 67.7337C313.282 67.8923 313.241 68.0367 313.161 68.1669C313.083 68.2947 312.98 68.3965 312.852 68.4723C312.724 68.5481 312.583 68.5859 312.429 68.5859ZM317.673 65.7273V73H316.136V67.1868H316.093L314.428 68.2308V66.8672L316.228 65.7273H317.673Z" fill="#ACACAC"/>
</g>
</g>
<defs>
<filter id="filter0_b_0_3" x="-44" y="-44" width="536" height="395" filterUnits="userSpaceOnUse" color-interpolation-filters="sRGB">
<feFlood flood-opacity="0" result="BackgroundImageFix"/>
<feGaussianBlur in="BackgroundImageFix" stdDeviation="22"/>
<feComposite in2="SourceAlpha" operator="in" result="effect1_backgroundBlur_0_3"/>
<feBlend mode="normal" in="SourceGraphic" in2="effect1_backgroundBlur_0_3" result="shape"/>
</filter>
<filter id="filter1_b_0_3" x="171" y="2" width="213" height="119" filterUnits="userSpaceOnUse" color-interpolation-filters="sRGB">
<feFlood flood-opacity="0" result="BackgroundImageFix"/>
<feGaussianBlur in="BackgroundImageFix" stdDeviation="14.5"/>
<feComposite in2="SourceAlpha" operator="in" result="effect1_backgroundBlur_0_3"/>
<feBlend mode="normal" in="SourceGraphic" in2="effect1_backgroundBlur_0_3" result="shape"/>
</filter>
<linearGradient id="paint0_linear_0_3" x1="222.998" y1="75.0348" x2="235.979" y2="231.002" gradientUnits="userSpaceOnUse">
<stop stop-color="#A877FF" stop-opacity="0.51"/>
<stop offset="0.713542" stop-color="#A877FF" stop-opacity="0.11"/>
<stop offset="1" stop-color="#A877FF" stop-opacity="0"/>
</linearGradient>
<linearGradient id="paint1_linear_0_3" x1="207.933" y1="-172.538" x2="222.937" y2="238.415" gradientUnits="userSpaceOnUse">
<stop stop-color="#A877FF"/>
<stop offset="1" stop-color="#A877FF" stop-opacity="0"/>
</linearGradient>
<linearGradient id="paint2_linear_0_3" x1="140" y1="-4.99999" x2="417" y2="105" gradientUnits="userSpaceOnUse">
<stop stop-color="white" stop-opacity="0.26"/>
<stop offset="1" stop-color="#F8F8F8" stop-opacity="0.04"/>
</linearGradient>
<clipPath id="clip0_0_3">
<rect width="448" height="307" rx="30" fill="white"/>
</clipPath>
</defs>
</svg>
