<svg width="270" height="192" viewBox="0 0 270 192" fill="none" xmlns="http://www.w3.org/2000/svg">
<path d="M31.5284 53V23.9091H43.0057C45.2027 23.9091 47.0777 24.3021 48.6307 25.0881C50.1932 25.8646 51.3816 26.9678 52.196 28.3977C53.0199 29.8182 53.4318 31.4896 53.4318 33.4119C53.4318 35.3437 53.0152 37.0057 52.1818 38.3977C51.3485 39.7803 50.1411 40.8409 48.5597 41.5795C46.9877 42.3182 45.0843 42.6875 42.8494 42.6875H35.1648V37.7443H41.8551C43.0294 37.7443 44.0047 37.5833 44.7812 37.2614C45.5578 36.9394 46.1354 36.4564 46.5142 35.8125C46.9025 35.1686 47.0966 34.3684 47.0966 33.4119C47.0966 32.446 46.9025 31.6316 46.5142 30.9688C46.1354 30.3059 45.553 29.804 44.767 29.4631C43.9905 29.1127 43.0104 28.9375 41.8267 28.9375H37.679V53H31.5284ZM47.2386 39.7614L54.4688 53H47.679L40.6051 39.7614H47.2386ZM67.2564 53.4261C65.0121 53.4261 63.0803 52.9716 61.4609 52.0625C59.8511 51.1439 58.6106 49.8466 57.7393 48.1705C56.8681 46.4848 56.4325 44.4915 56.4325 42.1903C56.4325 39.946 56.8681 37.9763 57.7393 36.2812C58.6106 34.5862 59.8369 33.2652 61.4183 32.3182C63.0092 31.3712 64.8748 30.8977 67.0149 30.8977C68.4543 30.8977 69.7943 31.1297 71.0348 31.5938C72.2848 32.0483 73.3738 32.7348 74.3018 33.6534C75.2393 34.572 75.9685 35.7273 76.4893 37.1193C77.0102 38.5019 77.2706 40.1212 77.2706 41.9773V43.6392H58.8473V39.8892H71.5746C71.5746 39.018 71.3852 38.2462 71.0064 37.5739C70.6276 36.9015 70.102 36.3759 69.4297 35.9972C68.7668 35.6089 67.995 35.4148 67.1143 35.4148C66.1958 35.4148 65.3814 35.6278 64.6712 36.054C63.9704 36.4706 63.4212 37.0341 63.0234 37.7443C62.6257 38.4451 62.4221 39.2263 62.4126 40.0881V43.6534C62.4126 44.733 62.6115 45.6657 63.0092 46.4517C63.4164 47.2377 63.9893 47.8438 64.728 48.2699C65.4666 48.696 66.3426 48.9091 67.3558 48.9091C68.0282 48.9091 68.6437 48.8144 69.2024 48.625C69.7611 48.4356 70.2393 48.1515 70.6371 47.7727C71.0348 47.3939 71.3378 46.9299 71.5462 46.3807L77.1428 46.75C76.8587 48.0947 76.2763 49.2689 75.3956 50.2727C74.5244 51.267 73.3975 52.0436 72.0149 52.6023C70.6418 53.1515 69.0556 53.4261 67.2564 53.4261ZM99.3729 37.4034L93.8331 37.7443C93.7384 37.2708 93.5348 36.8447 93.2223 36.4659C92.9098 36.0777 92.4979 35.7699 91.9865 35.5426C91.4846 35.3059 90.8833 35.1875 90.1825 35.1875C89.245 35.1875 88.4543 35.3864 87.8104 35.7841C87.1664 36.1723 86.8445 36.6932 86.8445 37.3466C86.8445 37.8674 87.0528 38.3078 87.4695 38.6676C87.8861 39.0275 88.6011 39.3163 89.6143 39.5341L93.5632 40.3295C95.6844 40.7652 97.2659 41.4659 98.3075 42.4318C99.3492 43.3977 99.87 44.6667 99.87 46.2386C99.87 47.6686 99.4486 48.9233 98.6058 50.0028C97.7725 51.0824 96.6267 51.9252 95.1683 52.5312C93.7195 53.1278 92.0481 53.4261 90.1541 53.4261C87.2659 53.4261 84.9647 52.8248 83.2507 51.6222C81.5462 50.41 80.5471 48.7623 80.2536 46.679L86.2053 46.3665C86.3852 47.2472 86.8208 47.9195 87.5121 48.3835C88.2034 48.8381 89.0888 49.0653 90.1683 49.0653C91.2289 49.0653 92.0812 48.8617 92.7251 48.4545C93.3786 48.0379 93.71 47.5028 93.7195 46.8494C93.71 46.3002 93.478 45.8504 93.0234 45.5C92.5689 45.1402 91.8681 44.8655 90.9212 44.6761L87.1428 43.9233C85.0121 43.4972 83.4259 42.7585 82.3842 41.7074C81.352 40.6562 80.8359 39.3163 80.8359 37.6875C80.8359 36.286 81.2147 35.0786 81.9723 34.0653C82.7393 33.0521 83.8142 32.2708 85.1967 31.7216C86.5888 31.1723 88.2176 30.8977 90.0831 30.8977C92.8388 30.8977 95.0073 31.4801 96.5888 32.6449C98.1797 33.8097 99.1077 35.3958 99.3729 37.4034ZM117.672 43.7102V31.1818H123.723V53H117.913V49.0369H117.686C117.194 50.3153 116.375 51.3428 115.229 52.1193C114.092 52.8958 112.705 53.2841 111.067 53.2841C109.608 53.2841 108.325 52.9527 107.217 52.2898C106.109 51.6269 105.243 50.6847 104.618 49.4631C104.002 48.2415 103.69 46.7784 103.68 45.0739V31.1818H109.732V43.9943C109.741 45.2822 110.087 46.3002 110.768 47.0483C111.45 47.7964 112.364 48.1705 113.51 48.1705C114.239 48.1705 114.921 48.0047 115.555 47.6733C116.19 47.3324 116.701 46.8305 117.089 46.1676C117.487 45.5047 117.681 44.6856 117.672 43.7102ZM134.614 23.9091V53H128.563V23.9091H134.614ZM151.067 31.1818V35.7273H137.928V31.1818H151.067ZM140.911 25.9545H146.962V46.2955C146.962 46.8542 147.047 47.2898 147.217 47.6023C147.388 47.9053 147.625 48.1184 147.928 48.2415C148.24 48.3646 148.6 48.4261 149.007 48.4261C149.291 48.4261 149.575 48.4025 149.859 48.3551C150.143 48.2983 150.361 48.2557 150.513 48.2273L151.464 52.7301C151.161 52.8248 150.735 52.9337 150.186 53.0568C149.637 53.1894 148.969 53.2699 148.183 53.2983C146.725 53.3551 145.446 53.161 144.348 52.7159C143.259 52.2708 142.411 51.5795 141.805 50.642C141.199 49.7045 140.901 48.5208 140.911 47.0909V25.9545Z" fill="#A2A3B1"/>
<path d="M29.8494 76.9759V75.9631C30.7588 75.9631 31.3931 75.7725 31.7525 75.3913C32.1173 75.0102 32.2997 74.3731 32.2997 73.4801V70.8665C32.2997 70.1151 32.3705 69.4644 32.5121 68.9144C32.6591 68.3645 32.896 67.9098 33.2227 67.5504C33.5494 67.1911 33.985 66.9242 34.5295 66.75C35.074 66.5758 35.7464 66.4886 36.5469 66.4886V68.0895C35.9152 68.0895 35.417 68.1875 35.0522 68.3835C34.6928 68.5795 34.4369 68.8845 34.2844 69.2983C34.1374 69.7067 34.0639 70.2294 34.0639 70.8665V74.1335C34.0639 74.5582 34.0067 74.9448 33.8924 75.2933C33.7835 75.6418 33.5793 75.9413 33.2798 76.1918C32.9804 76.4422 32.5529 76.6355 31.9975 76.7717C31.4476 76.9078 30.7315 76.9759 29.8494 76.9759ZM36.5469 87.3977C35.7464 87.3977 35.074 87.3106 34.5295 87.1364C33.985 86.9621 33.5494 86.6953 33.2227 86.3359C32.896 85.9766 32.6591 85.5219 32.5121 84.9719C32.3705 84.422 32.2997 83.7713 32.2997 83.0199V80.4062C32.2997 79.5133 32.1173 78.8762 31.7525 78.495C31.3931 78.1139 30.7588 77.9233 29.8494 77.9233V76.9105C30.7315 76.9105 31.4476 76.9786 31.9975 77.1147C32.5529 77.2508 32.9804 77.4441 33.2798 77.6946C33.5793 77.9451 33.7835 78.2446 33.8924 78.593C34.0067 78.9415 34.0639 79.3281 34.0639 79.7528V83.0199C34.0639 83.657 34.1374 84.1797 34.2844 84.5881C34.4369 84.9964 34.6928 85.2987 35.0522 85.4947C35.417 85.6961 35.9152 85.7969 36.5469 85.7969V87.3977ZM29.8494 77.9233V75.9631H31.777V77.9233H29.8494ZM56.6392 116.705V99.4545H58.5014V101.447H58.7301C58.8717 101.23 59.0677 100.952 59.3182 100.614C59.5741 100.271 59.9389 99.9664 60.4126 99.6996C60.8918 99.4273 61.5398 99.2912 62.3565 99.2912C63.4129 99.2912 64.344 99.5553 65.1499 100.083C65.9557 100.612 66.5846 101.36 67.0366 102.33C67.4885 103.299 67.7145 104.442 67.7145 105.76C67.7145 107.089 67.4885 108.24 67.0366 109.215C66.5846 110.184 65.9585 110.935 65.158 111.469C64.3576 111.997 63.4347 112.261 62.3892 112.261C61.5833 112.261 60.9381 112.128 60.4535 111.861C59.9689 111.589 59.5959 111.281 59.3345 110.938C59.0732 110.59 58.8717 110.301 58.7301 110.072H58.5668V116.705H56.6392ZM58.5341 105.727C58.5341 106.675 58.6729 107.511 58.9506 108.235C59.2283 108.953 59.634 109.517 60.1676 109.925C60.7012 110.328 61.3546 110.53 62.1278 110.53C62.9337 110.53 63.6062 110.317 64.1452 109.893C64.6897 109.463 65.0981 108.885 65.3704 108.161C65.6481 107.432 65.7869 106.62 65.7869 105.727C65.7869 104.845 65.6508 104.05 65.3786 103.342C65.1117 102.629 64.7061 102.065 64.1616 101.652C63.6225 101.232 62.9446 101.023 62.1278 101.023C61.3438 101.023 60.6849 101.221 60.1513 101.619C59.6177 102.011 59.2147 102.561 58.9425 103.269C58.6702 103.971 58.5341 104.791 58.5341 105.727ZM75.7514 112.261C74.6188 112.261 73.6251 111.992 72.7702 111.453C71.9208 110.914 71.2565 110.16 70.7773 109.19C70.3036 108.221 70.0668 107.089 70.0668 105.793C70.0668 104.486 70.3036 103.345 70.7773 102.37C71.2565 101.396 71.9208 100.639 72.7702 100.1C73.6251 99.5607 74.6188 99.2912 75.7514 99.2912C76.884 99.2912 77.875 99.5607 78.7244 100.1C79.5793 100.639 80.2436 101.396 80.7173 102.37C81.1965 103.345 81.4361 104.486 81.4361 105.793C81.4361 107.089 81.1965 108.221 80.7173 109.19C80.2436 110.16 79.5793 110.914 78.7244 111.453C77.875 111.992 76.884 112.261 75.7514 112.261ZM75.7514 110.53C76.6117 110.53 77.3196 110.309 77.875 109.868C78.4304 109.427 78.8415 108.847 79.1083 108.129C79.3751 107.41 79.5085 106.631 79.5085 105.793C79.5085 104.954 79.3751 104.173 79.1083 103.449C78.8415 102.724 78.4304 102.139 77.875 101.692C77.3196 101.246 76.6117 101.023 75.7514 101.023C74.8911 101.023 74.1832 101.246 73.6278 101.692C73.0724 102.139 72.6613 102.724 72.3945 103.449C72.1277 104.173 71.9943 104.954 71.9943 105.793C71.9943 106.631 72.1277 107.41 72.3945 108.129C72.6613 108.847 73.0724 109.427 73.6278 109.868C74.1832 110.309 74.8911 110.53 75.7514 110.53ZM86.306 95.2727V112H84.3785V95.2727H86.306ZM93.5282 112.294C92.7333 112.294 92.0118 112.144 91.3638 111.845C90.7158 111.54 90.2013 111.102 89.8201 110.53C89.439 109.953 89.2484 109.256 89.2484 108.439C89.2484 107.72 89.39 107.138 89.6731 106.691C89.9563 106.239 90.3347 105.885 90.8084 105.629C91.2821 105.373 91.8049 105.183 92.3766 105.058C92.9538 104.927 93.5337 104.823 94.1163 104.747C94.8786 104.649 95.4966 104.576 95.9703 104.527C96.4495 104.472 96.798 104.382 97.0158 104.257C97.2391 104.132 97.3507 103.914 97.3507 103.604V103.538C97.3507 102.732 97.1301 102.106 96.6891 101.66C96.2535 101.213 95.5919 100.99 94.7044 100.99C93.7842 100.99 93.0627 101.192 92.54 101.594C92.0172 101.997 91.6497 102.428 91.4373 102.885L89.6078 102.232C89.9345 101.469 90.3701 100.876 90.9146 100.451C91.4645 100.021 92.0635 99.7214 92.7115 99.5526C93.3649 99.3783 94.0074 99.2912 94.639 99.2912C95.042 99.2912 95.5048 99.3402 96.0275 99.4382C96.5557 99.5308 97.0648 99.7241 97.5549 100.018C98.0504 100.312 98.4615 100.756 98.7882 101.349C99.1149 101.943 99.2782 102.738 99.2782 103.734V112H97.3507V110.301H97.2527C97.122 110.573 96.9042 110.865 96.5993 111.175C96.2943 111.485 95.8887 111.75 95.3823 111.967C94.8759 112.185 94.2579 112.294 93.5282 112.294ZM93.8223 110.562C94.5846 110.562 95.2271 110.413 95.7498 110.113C96.278 109.814 96.6755 109.427 96.9423 108.953C97.2145 108.48 97.3507 107.982 97.3507 107.459V105.695C97.269 105.793 97.0893 105.882 96.8116 105.964C96.5394 106.04 96.2235 106.108 95.8642 106.168C95.5102 106.223 95.1645 106.272 94.8269 106.315C94.4947 106.353 94.2252 106.386 94.0183 106.413C93.5173 106.479 93.0491 106.585 92.6135 106.732C92.1833 106.873 91.8348 107.089 91.568 107.377C91.3066 107.66 91.176 108.047 91.176 108.537C91.176 109.207 91.4237 109.713 91.9192 110.056C92.4202 110.394 93.0545 110.562 93.8223 110.562ZM102.796 112V99.4545H104.659V101.349H104.789C105.018 100.729 105.432 100.225 106.031 99.8384C106.63 99.4518 107.305 99.2585 108.056 99.2585C108.198 99.2585 108.375 99.2612 108.587 99.2667C108.8 99.2721 108.96 99.2803 109.069 99.2912V101.251C109.004 101.235 108.854 101.211 108.62 101.178C108.391 101.14 108.149 101.121 107.893 101.121C107.283 101.121 106.739 101.249 106.259 101.505C105.786 101.755 105.41 102.104 105.132 102.55C104.86 102.991 104.724 103.495 104.724 104.061V112H102.796ZM111.354 112V99.4545H113.282V112H111.354ZM112.334 97.3636C111.958 97.3636 111.634 97.2357 111.362 96.9798C111.095 96.7238 110.962 96.4162 110.962 96.0568C110.962 95.6974 111.095 95.3898 111.362 95.1339C111.634 94.878 111.958 94.75 112.334 94.75C112.71 94.75 113.031 94.878 113.298 95.1339C113.57 95.3898 113.706 95.6974 113.706 96.0568C113.706 96.4162 113.57 96.7238 113.298 96.9798C113.031 97.2357 112.71 97.3636 112.334 97.3636ZM122.268 99.4545V101.088H115.767V99.4545H122.268ZM117.661 96.4489H119.589V108.406C119.589 108.951 119.668 109.359 119.826 109.631C119.989 109.898 120.196 110.078 120.447 110.17C120.703 110.258 120.972 110.301 121.255 110.301C121.468 110.301 121.642 110.29 121.778 110.268C121.914 110.241 122.023 110.219 122.105 110.203L122.497 111.935C122.366 111.984 122.184 112.033 121.949 112.082C121.715 112.136 121.419 112.163 121.059 112.163C120.515 112.163 119.981 112.046 119.458 111.812C118.941 111.578 118.511 111.221 118.168 110.742C117.83 110.263 117.661 109.659 117.661 108.929V96.4489ZM126.409 116.705C126.082 116.705 125.791 116.677 125.535 116.623C125.279 116.574 125.102 116.525 125.004 116.476L125.494 114.777C125.963 114.897 126.376 114.94 126.736 114.908C127.095 114.875 127.414 114.714 127.691 114.426C127.974 114.143 128.233 113.683 128.467 113.045L128.827 112.065L124.187 99.4545H126.278L129.741 109.452H129.872L133.335 99.4545H135.426L130.101 113.83C129.861 114.478 129.564 115.014 129.21 115.439C128.857 115.869 128.445 116.187 127.977 116.394C127.514 116.601 126.992 116.705 126.409 116.705ZM145.844 112.131C145.441 112.131 145.095 111.986 144.807 111.698C144.518 111.409 144.374 111.063 144.374 110.661C144.374 110.258 144.518 109.912 144.807 109.623C145.095 109.335 145.441 109.19 145.844 109.19C146.247 109.19 146.593 109.335 146.881 109.623C147.17 109.912 147.314 110.258 147.314 110.661C147.314 110.927 147.246 111.172 147.11 111.396C146.979 111.619 146.802 111.799 146.579 111.935C146.361 112.065 146.116 112.131 145.844 112.131ZM145.844 102.82C145.441 102.82 145.095 102.675 144.807 102.387C144.518 102.098 144.374 101.752 144.374 101.349C144.374 100.946 144.518 100.601 144.807 100.312C145.095 100.024 145.441 99.8793 145.844 99.8793C146.247 99.8793 146.593 100.024 146.881 100.312C147.17 100.601 147.314 100.946 147.314 101.349C147.314 101.616 147.246 101.861 147.11 102.085C146.979 102.308 146.802 102.487 146.579 102.624C146.361 102.754 146.116 102.82 145.844 102.82ZM245.334 109.713L245.203 110.595C245.11 111.216 244.969 111.88 244.778 112.588C244.593 113.296 244.4 113.963 244.198 114.589C243.997 115.215 243.831 115.714 243.7 116.084H242.23C242.301 115.735 242.393 115.275 242.508 114.703C242.622 114.132 242.736 113.492 242.851 112.784C242.97 112.082 243.068 111.363 243.145 110.628L243.243 109.713H245.334ZM65.5256 130.264L63.794 130.754C63.6851 130.466 63.5245 130.185 63.3121 129.913C63.1052 129.635 62.8221 129.407 62.4627 129.227C62.1033 129.047 61.6432 128.957 61.0824 128.957C60.3146 128.957 59.6748 129.134 59.163 129.488C58.6566 129.837 58.4034 130.281 58.4034 130.82C58.4034 131.299 58.5777 131.677 58.9261 131.955C59.2746 132.233 59.8191 132.464 60.5597 132.649L62.4219 133.107C63.5436 133.379 64.3794 133.795 64.9293 134.356C65.4793 134.912 65.7543 135.628 65.7543 136.504C65.7543 137.223 65.5473 137.866 65.1335 138.432C64.7251 138.998 64.1534 139.445 63.4183 139.771C62.6832 140.098 61.8284 140.261 60.8537 140.261C59.5741 140.261 58.515 139.984 57.6765 139.428C56.8379 138.873 56.3071 138.062 56.0838 136.994L57.9134 136.537C58.0876 137.212 58.417 137.719 58.9016 138.056C59.3917 138.394 60.0315 138.562 60.821 138.562C61.7195 138.562 62.4328 138.372 62.9609 137.991C63.4946 137.604 63.7614 137.141 63.7614 136.602C63.7614 136.167 63.6089 135.802 63.304 135.508C62.9991 135.208 62.5308 134.985 61.8991 134.838L59.8082 134.348C58.6593 134.076 57.8153 133.654 57.2763 133.082C56.7427 132.505 56.4759 131.783 56.4759 130.918C56.4759 130.21 56.6746 129.584 57.0721 129.039C57.475 128.495 58.0223 128.067 58.7138 127.757C59.4107 127.446 60.2003 127.291 61.0824 127.291C62.3239 127.291 63.2985 127.563 64.0064 128.108C64.7197 128.652 65.2261 129.371 65.5256 130.264ZM73.7524 140.261C72.5763 140.261 71.5635 139.984 70.714 139.428C69.8646 138.873 69.2112 138.108 68.7538 137.133C68.2964 136.158 68.0677 135.045 68.0677 133.793C68.0677 132.518 68.3019 131.394 68.7702 130.419C69.2439 129.439 69.9027 128.674 70.7467 128.124C71.5961 127.569 72.5872 127.291 73.7197 127.291C74.6018 127.291 75.3968 127.455 76.1047 127.781C76.8125 128.108 77.3924 128.565 77.8444 129.153C78.2963 129.741 78.5767 130.428 78.6856 131.212H76.7581C76.6111 130.64 76.2844 130.134 75.778 129.692C75.277 129.246 74.6018 129.023 73.7524 129.023C73.001 129.023 72.3421 129.219 71.7758 129.611C71.215 129.997 70.7767 130.545 70.4608 131.252C70.1505 131.955 69.9953 132.78 69.9953 133.727C69.9953 134.696 70.1478 135.54 70.4527 136.259C70.7631 136.978 71.1987 137.536 71.7595 137.934C72.3258 138.331 72.9901 138.53 73.7524 138.53C74.2533 138.53 74.708 138.443 75.1164 138.268C75.5248 138.094 75.8705 137.844 76.1537 137.517C76.4368 137.19 76.6383 136.798 76.7581 136.341H78.6856C78.5767 137.081 78.3072 137.748 77.877 138.342C77.4523 138.93 76.8888 139.398 76.1863 139.747C75.4894 140.09 74.6781 140.261 73.7524 140.261ZM86.6001 140.261C85.4675 140.261 84.4738 139.992 83.6189 139.453C82.7694 138.914 82.1051 138.16 81.626 137.19C81.1523 136.221 80.9154 135.089 80.9154 133.793C80.9154 132.486 81.1523 131.345 81.626 130.37C82.1051 129.396 82.7694 128.639 83.6189 128.1C84.4738 127.561 85.4675 127.291 86.6001 127.291C87.7326 127.291 88.7236 127.561 89.5731 128.1C90.4279 128.639 91.0922 129.396 91.566 130.37C92.0451 131.345 92.2847 132.486 92.2847 133.793C92.2847 135.089 92.0451 136.221 91.566 137.19C91.0922 138.16 90.4279 138.914 89.5731 139.453C88.7236 139.992 87.7326 140.261 86.6001 140.261ZM86.6001 138.53C87.4604 138.53 88.1682 138.309 88.7236 137.868C89.279 137.427 89.6901 136.847 89.9569 136.129C90.2238 135.41 90.3572 134.631 90.3572 133.793C90.3572 132.954 90.2238 132.173 89.9569 131.449C89.6901 130.724 89.279 130.139 88.7236 129.692C88.1682 129.246 87.4604 129.023 86.6001 129.023C85.7397 129.023 85.0319 129.246 84.4765 129.692C83.9211 130.139 83.51 130.724 83.2432 131.449C82.9764 132.173 82.843 132.954 82.843 133.793C82.843 134.631 82.9764 135.41 83.2432 136.129C83.51 136.847 83.9211 137.427 84.4765 137.868C85.0319 138.309 85.7397 138.53 86.6001 138.53ZM95.2271 140V127.455H97.0893V129.349H97.22C97.4487 128.729 97.8625 128.225 98.4615 127.838C99.0604 127.452 99.7356 127.259 100.487 127.259C100.629 127.259 100.806 127.261 101.018 127.267C101.23 127.272 101.391 127.28 101.5 127.291V129.251C101.434 129.235 101.285 129.211 101.051 129.178C100.822 129.14 100.58 129.121 100.324 129.121C99.7138 129.121 99.1693 129.249 98.6902 129.505C98.2164 129.755 97.8407 130.104 97.563 130.55C97.2908 130.991 97.1547 131.495 97.1547 132.061V140H95.2271ZM108.663 140.261C107.454 140.261 106.411 139.995 105.535 139.461C104.663 138.922 103.991 138.17 103.517 137.207C103.049 136.237 102.815 135.11 102.815 133.825C102.815 132.54 103.049 131.408 103.517 130.428C103.991 129.442 104.65 128.674 105.494 128.124C106.343 127.569 107.334 127.291 108.467 127.291C109.12 127.291 109.765 127.4 110.403 127.618C111.04 127.836 111.619 128.19 112.142 128.68C112.665 129.164 113.081 129.807 113.392 130.607C113.702 131.408 113.857 132.393 113.857 133.564V134.381H104.187V132.714H111.897C111.897 132.007 111.756 131.375 111.472 130.82C111.195 130.264 110.797 129.826 110.28 129.505C109.768 129.183 109.164 129.023 108.467 129.023C107.699 129.023 107.035 129.213 106.474 129.594C105.919 129.97 105.491 130.46 105.192 131.065C104.892 131.669 104.742 132.317 104.742 133.009V134.119C104.742 135.067 104.906 135.87 105.232 136.529C105.565 137.182 106.025 137.68 106.613 138.023C107.201 138.361 107.884 138.53 108.663 138.53C109.169 138.53 109.627 138.459 110.035 138.317C110.449 138.17 110.805 137.953 111.105 137.664C111.404 137.37 111.636 137.005 111.799 136.57L113.661 137.092C113.465 137.724 113.136 138.279 112.673 138.759C112.21 139.232 111.639 139.603 110.958 139.869C110.277 140.131 109.512 140.261 108.663 140.261ZM124.663 137.86C124.26 137.86 123.914 137.716 123.626 137.427C123.337 137.139 123.193 136.793 123.193 136.39C123.193 135.987 123.337 135.641 123.626 135.353C123.914 135.064 124.26 134.92 124.663 134.92C125.066 134.92 125.412 135.064 125.7 135.353C125.989 135.641 126.133 135.987 126.133 136.39C126.133 136.657 126.065 136.902 125.929 137.125C125.798 137.348 125.622 137.528 125.398 137.664C125.18 137.795 124.935 137.86 124.663 137.86ZM124.663 129.398C124.26 129.398 123.914 129.254 123.626 128.966C123.337 128.677 123.193 128.331 123.193 127.928C123.193 127.525 123.337 127.18 123.626 126.891C123.914 126.602 124.26 126.458 124.663 126.458C125.066 126.458 125.412 126.602 125.7 126.891C125.989 127.18 126.133 127.525 126.133 127.928C126.133 128.195 126.065 128.44 125.929 128.663C125.798 128.887 125.622 129.066 125.398 129.202C125.18 129.333 124.935 129.398 124.663 129.398ZM141.354 123.044C142.04 123.049 142.726 123.18 143.412 123.436C144.098 123.692 144.724 124.117 145.29 124.71C145.857 125.298 146.311 126.101 146.654 127.12C146.998 128.138 147.169 129.415 147.169 130.95C147.169 132.437 147.027 133.757 146.744 134.912C146.467 136.06 146.064 137.03 145.536 137.819C145.013 138.609 144.376 139.208 143.624 139.616C142.878 140.025 142.034 140.229 141.092 140.229C140.156 140.229 139.32 140.044 138.585 139.673C137.855 139.298 137.256 138.778 136.788 138.113C136.325 137.444 136.028 136.668 135.898 135.786H137.891C138.07 136.553 138.427 137.188 138.961 137.689C139.5 138.184 140.21 138.432 141.092 138.432C142.383 138.432 143.401 137.868 144.147 136.741C144.898 135.614 145.274 134.021 145.274 131.963H145.143C144.839 132.42 144.476 132.815 144.057 133.147C143.638 133.48 143.172 133.735 142.661 133.915C142.149 134.095 141.604 134.185 141.027 134.185C140.069 134.185 139.189 133.948 138.389 133.474C137.594 132.995 136.957 132.339 136.478 131.506C136.004 130.667 135.767 129.709 135.767 128.631C135.767 127.607 135.996 126.67 136.453 125.821C136.916 124.966 137.564 124.286 138.397 123.779C139.236 123.273 140.221 123.028 141.354 123.044ZM141.354 124.841C140.668 124.841 140.05 125.012 139.5 125.355C138.955 125.693 138.522 126.15 138.201 126.728C137.885 127.299 137.727 127.934 137.727 128.631C137.727 129.328 137.88 129.962 138.185 130.534C138.495 131.1 138.917 131.552 139.451 131.89C139.99 132.222 140.602 132.388 141.288 132.388C141.806 132.388 142.288 132.287 142.734 132.086C143.181 131.879 143.57 131.598 143.902 131.244C144.24 130.885 144.504 130.479 144.694 130.027C144.885 129.57 144.98 129.094 144.98 128.598C144.98 127.945 144.822 127.332 144.506 126.76C144.196 126.189 143.766 125.726 143.216 125.372C142.671 125.018 142.051 124.841 141.354 124.841ZM155.935 140.229C155.249 140.218 154.563 140.087 153.877 139.837C153.191 139.586 152.564 139.164 151.998 138.571C151.432 137.972 150.977 137.163 150.634 136.145C150.291 135.121 150.12 133.836 150.12 132.29C150.12 130.809 150.258 129.496 150.536 128.353C150.814 127.204 151.217 126.238 151.745 125.453C152.273 124.664 152.91 124.065 153.656 123.657C154.408 123.248 155.254 123.044 156.196 123.044C157.133 123.044 157.966 123.232 158.696 123.608C159.431 123.978 160.03 124.495 160.492 125.159C160.955 125.824 161.255 126.589 161.391 127.455H159.398C159.213 126.703 158.853 126.08 158.32 125.584C157.786 125.089 157.078 124.841 156.196 124.841C154.9 124.841 153.879 125.404 153.133 126.532C152.393 127.659 152.02 129.241 152.014 131.277H152.145C152.45 130.814 152.812 130.419 153.231 130.093C153.656 129.761 154.124 129.505 154.636 129.325C155.148 129.145 155.69 129.055 156.262 129.055C157.22 129.055 158.097 129.295 158.892 129.774C159.687 130.248 160.324 130.904 160.803 131.743C161.282 132.576 161.522 133.531 161.522 134.609C161.522 135.644 161.29 136.591 160.827 137.452C160.364 138.307 159.714 138.987 158.875 139.494C158.042 139.995 157.062 140.24 155.935 140.229ZM155.935 138.432C156.621 138.432 157.236 138.26 157.781 137.917C158.331 137.574 158.764 137.114 159.079 136.537C159.401 135.96 159.561 135.317 159.561 134.609C159.561 133.918 159.406 133.289 159.096 132.723C158.791 132.151 158.369 131.696 157.83 131.359C157.296 131.021 156.686 130.852 156 130.852C155.483 130.852 155.001 130.956 154.555 131.163C154.108 131.364 153.716 131.642 153.378 131.996C153.046 132.35 152.785 132.755 152.594 133.213C152.404 133.665 152.309 134.141 152.309 134.642C152.309 135.306 152.464 135.927 152.774 136.504C153.09 137.081 153.52 137.547 154.065 137.901C154.614 138.255 155.238 138.432 155.935 138.432ZM165.385 140.131C164.982 140.131 164.636 139.986 164.348 139.698C164.059 139.409 163.915 139.063 163.915 138.661C163.915 138.258 164.059 137.912 164.348 137.623C164.636 137.335 164.982 137.19 165.385 137.19C165.788 137.19 166.134 137.335 166.422 137.623C166.711 137.912 166.855 138.258 166.855 138.661C166.855 138.927 166.787 139.172 166.651 139.396C166.52 139.619 166.343 139.799 166.12 139.935C165.902 140.065 165.657 140.131 165.385 140.131ZM175.304 140.229C174.226 140.229 173.265 140.044 172.421 139.673C171.583 139.303 170.916 138.788 170.42 138.13C169.93 137.465 169.663 136.695 169.62 135.818H171.678C171.722 136.357 171.907 136.823 172.233 137.215C172.56 137.601 172.988 137.901 173.516 138.113C174.044 138.326 174.629 138.432 175.272 138.432C175.991 138.432 176.628 138.307 177.183 138.056C177.738 137.806 178.174 137.457 178.49 137.011C178.806 136.564 178.964 136.047 178.964 135.459C178.964 134.844 178.811 134.302 178.506 133.833C178.201 133.36 177.755 132.989 177.167 132.723C176.579 132.456 175.86 132.322 175.01 132.322H173.671V130.526H175.01C175.675 130.526 176.257 130.406 176.758 130.166C177.265 129.927 177.659 129.589 177.943 129.153C178.231 128.718 178.375 128.206 178.375 127.618C178.375 127.052 178.25 126.559 178 126.14C177.749 125.72 177.395 125.394 176.938 125.159C176.486 124.925 175.952 124.808 175.337 124.808C174.76 124.808 174.215 124.914 173.704 125.127C173.197 125.334 172.783 125.636 172.462 126.033C172.141 126.425 171.967 126.899 171.939 127.455H169.979C170.012 126.578 170.276 125.81 170.771 125.151C171.267 124.487 171.915 123.97 172.715 123.599C173.521 123.229 174.406 123.044 175.37 123.044C176.404 123.044 177.292 123.254 178.032 123.673C178.773 124.087 179.342 124.634 179.739 125.315C180.137 125.995 180.336 126.73 180.336 127.52C180.336 128.462 180.088 129.265 179.592 129.929C179.102 130.594 178.435 131.054 177.591 131.31V131.44C178.648 131.615 179.473 132.064 180.066 132.788C180.66 133.507 180.956 134.397 180.956 135.459C180.956 136.368 180.709 137.185 180.213 137.909C179.723 138.628 179.053 139.194 178.204 139.608C177.354 140.022 176.388 140.229 175.304 140.229ZM192.824 136.864V135.982C192.824 135.372 192.949 134.814 193.2 134.307C193.456 133.795 193.826 133.387 194.31 133.082C194.801 132.772 195.394 132.616 196.091 132.616C196.799 132.616 197.392 132.772 197.872 133.082C198.351 133.387 198.713 133.795 198.958 134.307C199.203 134.814 199.325 135.372 199.325 135.982V136.864C199.325 137.473 199.2 138.034 198.95 138.546C198.705 139.053 198.34 139.461 197.855 139.771C197.376 140.076 196.788 140.229 196.091 140.229C195.383 140.229 194.787 140.076 194.302 139.771C193.818 139.461 193.45 139.053 193.2 138.546C192.949 138.034 192.824 137.473 192.824 136.864ZM194.49 135.982V136.864C194.49 137.37 194.61 137.825 194.85 138.228C195.089 138.625 195.503 138.824 196.091 138.824C196.663 138.824 197.066 138.625 197.3 138.228C197.539 137.825 197.659 137.37 197.659 136.864V135.982C197.659 135.475 197.545 135.023 197.316 134.626C197.087 134.223 196.679 134.021 196.091 134.021C195.519 134.021 195.108 134.223 194.858 134.626C194.613 135.023 194.49 135.475 194.49 135.982ZM184.493 127.291V126.409C184.493 125.799 184.618 125.241 184.869 124.735C185.125 124.223 185.495 123.815 185.979 123.51C186.47 123.199 187.063 123.044 187.76 123.044C188.468 123.044 189.061 123.199 189.541 123.51C190.02 123.815 190.382 124.223 190.627 124.735C190.872 125.241 190.994 125.799 190.994 126.409V127.291C190.994 127.901 190.869 128.462 190.619 128.974C190.374 129.48 190.009 129.888 189.524 130.199C189.045 130.504 188.457 130.656 187.76 130.656C187.052 130.656 186.456 130.504 185.971 130.199C185.487 129.888 185.119 129.48 184.869 128.974C184.618 128.462 184.493 127.901 184.493 127.291ZM186.159 126.409V127.291C186.159 127.798 186.279 128.252 186.519 128.655C186.758 129.053 187.172 129.251 187.76 129.251C188.332 129.251 188.735 129.053 188.969 128.655C189.208 128.252 189.328 127.798 189.328 127.291V126.409C189.328 125.903 189.214 125.451 188.985 125.053C188.756 124.65 188.348 124.449 187.76 124.449C187.188 124.449 186.777 124.65 186.527 125.053C186.282 125.451 186.159 125.903 186.159 126.409ZM185.114 140L196.614 123.273H198.476L186.976 140H185.114ZM36.4815 160.911V161.923C35.5722 161.923 34.9351 162.114 34.5703 162.495C34.2109 162.876 34.0312 163.513 34.0312 164.406V167.02C34.0312 167.771 33.9577 168.422 33.8107 168.972C33.6692 169.522 33.435 169.977 33.1083 170.336C32.7816 170.695 32.346 170.962 31.8015 171.136C31.257 171.311 30.5845 171.398 29.7841 171.398V169.797C30.4157 169.797 30.9112 169.696 31.2706 169.495C31.6354 169.299 31.8913 168.996 32.0384 168.588C32.1908 168.18 32.267 167.657 32.267 167.02V163.753C32.267 163.328 32.3215 162.942 32.4304 162.593C32.5447 162.245 32.7517 161.945 33.0511 161.695C33.3506 161.444 33.7753 161.251 34.3253 161.115C34.8807 160.979 35.5994 160.911 36.4815 160.911ZM29.7841 150.489C30.5845 150.489 31.257 150.576 31.8015 150.75C32.346 150.924 32.7816 151.191 33.1083 151.55C33.435 151.91 33.6692 152.364 33.8107 152.914C33.9577 153.464 34.0312 154.115 34.0312 154.866V157.48C34.0312 158.373 34.2109 159.01 34.5703 159.391C34.9351 159.772 35.5722 159.963 36.4815 159.963V160.976C35.5994 160.976 34.8807 160.908 34.3253 160.772C33.7753 160.636 33.3506 160.442 33.0511 160.192C32.7517 159.941 32.5447 159.642 32.4304 159.293C32.3215 158.945 32.267 158.558 32.267 158.134V154.866C32.267 154.229 32.1908 153.707 32.0384 153.298C31.8913 152.884 31.6354 152.58 31.2706 152.384C30.9112 152.187 30.4157 152.089 29.7841 152.089V150.489ZM36.4815 159.963V161.923H34.554V159.963H36.4815Z" fill="white"/>
<path d="M157.503 112V95.2727H163.155C164.467 95.2727 165.54 95.5096 166.373 95.9833C167.212 96.4516 167.832 97.0859 168.235 97.8864C168.638 98.6868 168.84 99.5798 168.84 100.565C168.84 101.551 168.638 102.447 168.235 103.252C167.838 104.058 167.223 104.701 166.389 105.18C165.556 105.654 164.489 105.891 163.188 105.891H159.137V104.094H163.122C164.021 104.094 164.742 103.939 165.287 103.628C165.831 103.318 166.226 102.899 166.471 102.37C166.722 101.837 166.847 101.235 166.847 100.565C166.847 99.8956 166.722 99.2966 166.471 98.7685C166.226 98.2403 165.829 97.8265 165.279 97.527C164.729 97.2221 163.999 97.0696 163.09 97.0696H159.529V112H157.503ZM176.803 112.261C175.671 112.261 174.677 111.992 173.822 111.453C172.973 110.914 172.308 110.16 171.829 109.19C171.355 108.221 171.119 107.089 171.119 105.793C171.119 104.486 171.355 103.345 171.829 102.37C172.308 101.396 172.973 100.639 173.822 100.1C174.677 99.5607 175.671 99.2912 176.803 99.2912C177.936 99.2912 178.927 99.5607 179.776 100.1C180.631 100.639 181.295 101.396 181.769 102.37C182.248 103.345 182.488 104.486 182.488 105.793C182.488 107.089 182.248 108.221 181.769 109.19C181.295 110.16 180.631 110.914 179.776 111.453C178.927 111.992 177.936 112.261 176.803 112.261ZM176.803 110.53C177.664 110.53 178.371 110.309 178.927 109.868C179.482 109.427 179.893 108.847 180.16 108.129C180.427 107.41 180.56 106.631 180.56 105.793C180.56 104.954 180.427 104.173 180.16 103.449C179.893 102.724 179.482 102.139 178.927 101.692C178.371 101.246 177.664 101.023 176.803 101.023C175.943 101.023 175.235 101.246 174.68 101.692C174.124 102.139 173.713 102.724 173.446 103.449C173.179 104.173 173.046 104.954 173.046 105.793C173.046 106.631 173.179 107.41 173.446 108.129C173.713 108.847 174.124 109.427 174.68 109.868C175.235 110.309 175.943 110.53 176.803 110.53ZM194.317 102.264L192.585 102.754C192.476 102.466 192.316 102.185 192.103 101.913C191.896 101.635 191.613 101.407 191.254 101.227C190.894 101.047 190.434 100.957 189.873 100.957C189.106 100.957 188.466 101.134 187.954 101.488C187.448 101.837 187.194 102.281 187.194 102.82C187.194 103.299 187.369 103.677 187.717 103.955C188.066 104.233 188.61 104.464 189.351 104.649L191.213 105.107C192.335 105.379 193.17 105.795 193.72 106.356C194.27 106.912 194.545 107.628 194.545 108.504C194.545 109.223 194.338 109.866 193.925 110.432C193.516 110.998 192.944 111.445 192.209 111.771C191.474 112.098 190.619 112.261 189.645 112.261C188.365 112.261 187.306 111.984 186.468 111.428C185.629 110.873 185.098 110.062 184.875 108.994L186.704 108.537C186.879 109.212 187.208 109.719 187.693 110.056C188.183 110.394 188.823 110.562 189.612 110.562C190.51 110.562 191.224 110.372 191.752 109.991C192.286 109.604 192.552 109.141 192.552 108.602C192.552 108.167 192.4 107.802 192.095 107.508C191.79 107.208 191.322 106.985 190.69 106.838L188.599 106.348C187.45 106.076 186.606 105.654 186.067 105.082C185.534 104.505 185.267 103.783 185.267 102.918C185.267 102.21 185.466 101.584 185.863 101.039C186.266 100.495 186.813 100.067 187.505 99.7567C188.202 99.4464 188.991 99.2912 189.873 99.2912C191.115 99.2912 192.09 99.5634 192.797 100.108C193.511 100.652 194.017 101.371 194.317 102.264ZM197.447 112V99.4545H199.374V112H197.447ZM198.427 97.3636C198.051 97.3636 197.727 97.2357 197.455 96.9798C197.188 96.7238 197.055 96.4162 197.055 96.0568C197.055 95.6974 197.188 95.3898 197.455 95.1339C197.727 94.878 198.051 94.75 198.427 94.75C198.803 94.75 199.124 94.878 199.391 95.1339C199.663 95.3898 199.799 95.6974 199.799 96.0568C199.799 96.4162 199.663 96.7238 199.391 96.9798C199.124 97.2357 198.803 97.3636 198.427 97.3636ZM208.361 99.4545V101.088H201.859V99.4545H208.361ZM203.754 96.4489H205.682V108.406C205.682 108.951 205.761 109.359 205.919 109.631C206.082 109.898 206.289 110.078 206.539 110.17C206.795 110.258 207.065 110.301 207.348 110.301C207.56 110.301 207.735 110.29 207.871 110.268C208.007 110.241 208.116 110.219 208.197 110.203L208.589 111.935C208.459 111.984 208.276 112.033 208.042 112.082C207.808 112.136 207.511 112.163 207.152 112.163C206.607 112.163 206.074 112.046 205.551 111.812C205.034 111.578 204.604 111.221 204.261 110.742C203.923 110.263 203.754 109.659 203.754 108.929V96.4489ZM211.26 112V99.4545H213.188V112H211.26ZM212.24 97.3636C211.865 97.3636 211.541 97.2357 211.268 96.9798C211.002 96.7238 210.868 96.4162 210.868 96.0568C210.868 95.6974 211.002 95.3898 211.268 95.1339C211.541 94.878 211.865 94.75 212.24 94.75C212.616 94.75 212.937 94.878 213.204 95.1339C213.476 95.3898 213.613 95.6974 213.613 96.0568C213.613 96.4162 213.476 96.7238 213.204 96.9798C212.937 97.2357 212.616 97.3636 212.24 97.3636ZM226.977 99.4545L222.338 112H220.377L215.738 99.4545H217.829L221.292 109.452H221.423L224.886 99.4545H226.977ZM234.332 112.261C233.123 112.261 232.08 111.995 231.204 111.461C230.332 110.922 229.66 110.17 229.186 109.207C228.718 108.237 228.484 107.11 228.484 105.825C228.484 104.54 228.718 103.408 229.186 102.428C229.66 101.442 230.319 100.674 231.163 100.124C232.012 99.5689 233.003 99.2912 234.136 99.2912C234.789 99.2912 235.434 99.4001 236.071 99.6179C236.709 99.8357 237.288 100.19 237.811 100.68C238.334 101.164 238.75 101.807 239.061 102.607C239.371 103.408 239.526 104.393 239.526 105.564V106.381H229.856V104.714H237.566C237.566 104.007 237.425 103.375 237.141 102.82C236.864 102.264 236.466 101.826 235.949 101.505C235.437 101.183 234.833 101.023 234.136 101.023C233.368 101.023 232.704 101.213 232.143 101.594C231.587 101.97 231.16 102.46 230.861 103.065C230.561 103.669 230.411 104.317 230.411 105.009V106.119C230.411 107.067 230.575 107.87 230.901 108.529C231.234 109.182 231.694 109.68 232.282 110.023C232.87 110.361 233.553 110.53 234.332 110.53C234.838 110.53 235.296 110.459 235.704 110.317C236.118 110.17 236.474 109.953 236.774 109.664C237.073 109.37 237.305 109.005 237.468 108.57L239.33 109.092C239.134 109.724 238.805 110.279 238.342 110.759C237.879 111.232 237.307 111.603 236.627 111.869C235.946 112.131 235.181 112.261 234.332 112.261Z" fill="#8AFF77"/>
</svg>
